<?xml version="1.0" standalone="no"?>
<!DOCTYPE svg PUBLIC "-//W3C//DTD SVG 20010904//EN"
 "http://www.w3.org/TR/2001/REC-SVG-20010904/DTD/svg10.dtd">
<svg version="1.0" xmlns="http://www.w3.org/2000/svg"
 width="595.000000pt" height="419.000000pt" viewBox="0 0 595.000000 419.000000"
 preserveAspectRatio="xMidYMid meet">

<g transform="translate(0.000000,419.000000) scale(0.100000,-0.100000)"
fill="#000000" stroke="none">
<path d="M2095 3435 c-78 -28 -117 -118 -97 -226 12 -62 45 -141 68 -160 10
-8 8 2 -6 32 -21 46 -28 149 -10 149 6 0 10 7 10 15 0 21 81 99 119 115 36 15
53 5 78 -44 27 -52 5 -195 -40 -260 l-20 -28 21 11 c88 47 141 228 94 320 -33
66 -141 103 -217 76z"/>
<path d="M4020 3432 c-47 -23 -64 -62 -68 -161 -4 -89 11 -108 21 -25 7 65 18
72 69 47 65 -31 101 -36 141 -19 20 8 38 12 41 9 3 -3 9 -28 12 -54 9 -68 24
-51 24 27 0 36 5 74 11 85 14 28 -10 63 -61 89 -50 26 -141 27 -190 2z"/>
<path d="M3916 2970 c-38 -16 -76 -36 -86 -45 -22 -20 -47 -109 -56 -198 -7
-67 -6 -69 24 -97 136 -124 459 -131 601 -13 l33 28 -16 92 c-9 50 -24 113
-33 139 -17 43 -24 51 -83 80 -36 17 -68 30 -72 27 -5 -2 -8 -21 -9 -41 0 -20
-4 -46 -8 -56 -7 -17 -9 -17 -27 9 l-20 27 -33 -27 -32 -28 -25 24 c-24 22
-26 23 -35 6 -16 -27 -28 -20 -34 21 -4 20 -10 47 -13 59 l-7 22 -69 -29z"/>
<path d="M1956 2950 c-26 -10 -57 -27 -67 -36 -27 -24 -49 -105 -56 -204 l-6
-86 60 -32 c109 -58 236 -76 363 -52 67 13 162 55 191 86 20 21 21 30 16 91
-7 74 -32 170 -51 192 -12 16 -84 50 -104 51 -10 0 -11 -15 -6 -65 l7 -65 -29
5 c-111 21 -126 21 -191 9 -37 -7 -70 -11 -74 -9 -3 3 -2 26 2 52 15 93 18 90
-55 63z"/>
<path d="M3045 2609 c-48 -14 -106 -68 -131 -123 -44 -94 -28 -172 68 -332 29
-50 69 -121 88 -157 19 -37 37 -67 40 -67 3 0 23 35 44 78 21 42 59 108 84
146 115 174 122 295 22 397 -60 63 -133 82 -215 58z m104 -59 c19 -5 50 -24
68 -42 106 -102 37 -278 -109 -278 -110 0 -186 120 -140 222 22 49 54 81 97
96 39 14 44 14 84 2z"/>
<path d="M5080 2363 c-39 -12 -62 -29 -80 -58 -23 -37 -37 -135 -23 -160 8
-13 14 -6 31 43 12 32 31 67 41 76 21 19 41 14 41 -8 0 -23 41 -66 63 -66 12
0 37 -14 55 -31 31 -27 33 -34 27 -70 -8 -44 5 -69 36 -69 24 0 35 23 44 87
21 156 -109 298 -235 256z"/>
<path d="M2705 1854 c-92 -8 -254 -34 -294 -47 -108 -38 -208 -139 -321 -327
-30 -50 -58 -90 -63 -90 -4 0 -17 9 -29 20 -46 43 -161 34 -205 -16 -46 -51
-19 -89 76 -107 34 -6 61 -14 61 -17 0 -4 -30 -44 -68 -91 -129 -161 -168
-233 -202 -366 -50 -193 -41 -491 17 -607 11 -20 12 -31 4 -39 -6 -6 -11 -46
-11 -89 l0 -78 1402 2 1402 3 8 30 c5 17 10 76 13 133 2 57 7 117 10 135 16
93 23 262 15 357 -24 266 -103 429 -280 573 -52 42 -47 51 32 61 55 8 91 36
81 63 -32 90 -182 113 -262 40 -14 -13 -25 -18 -28 -11 -19 54 -120 193 -192
265 -116 115 -211 165 -355 186 -98 14 -693 26 -811 17z m-635 -784 c133 -21
247 -103 335 -240 51 -79 73 -136 59 -150 -6 -6 -103 -11 -245 -13 -268 -2
-313 6 -368 68 -36 41 -45 83 -39 178 8 117 31 144 138 161 45 6 54 6 120 -4z
m2240 -14 c30 -9 38 -19 52 -61 9 -27 17 -77 18 -110 1 -196 -90 -237 -490
-218 l-165 8 -3 25 c-4 35 86 178 155 246 117 114 286 158 433 110z"/>
<path d="M944 1746 c-76 -36 -93 -59 -108 -151 -6 -37 -4 -42 26 -62 189 -125
436 -124 606 4 36 27 38 39 17 111 -17 55 -47 83 -127 117 l-37 15 -16 -33
c-8 -18 -40 -57 -70 -87 l-55 -54 0 -78 c0 -45 -4 -78 -10 -78 -6 0 -10 32
-10 76 l0 75 -54 50 c-30 27 -62 67 -72 88 l-19 40 -71 -33z"/>
</g>
</svg>
