<svg width="348" height="72" viewBox="0 0 348 72" fill="none" xmlns="http://www.w3.org/2000/svg">
<g filter="url(#filter0_d_7_83)">
<path d="M51.5312 25.2188C51.5312 27.7604 51.2917 30.0625 50.8125 32.125C50.3333 34.1667 49.6667 36.0104 48.8125 37.6562C47.9792 39.2812 46.9896 40.7188 45.8438 41.9688C44.6979 43.1979 43.4583 44.2604 42.125 45.1562C40.7917 46.0312 39.3958 46.7604 37.9375 47.3438C36.5 47.9062 35.0521 48.3333 33.5938 48.625C33.9271 49.3542 34.2812 50.0938 34.6562 50.8438C35.0521 51.6146 35.5208 52.375 36.0625 53.125C36.6042 53.875 37.25 54.625 38 55.375C38.7708 56.125 39.6979 56.8646 40.7812 57.5938C41.8854 58.3229 43.1771 59.0312 44.6562 59.7188C46.1562 60.4271 47.9062 61.1042 49.9062 61.75C50.0938 62 50.1875 62.2604 50.1875 62.5312C50.1875 62.8646 50.1146 63.0938 49.9688 63.2188C47.1771 63.2188 44.4271 62.9375 41.7188 62.375C39.0312 61.8125 36.5 60.9375 34.125 59.75C31.7708 58.5833 29.6354 57.0938 27.7188 55.2812C25.8021 53.4896 24.2188 51.3438 22.9688 48.8438C21.5312 48.6146 20.0729 48.25 18.5938 47.75C17.1146 47.2292 15.6771 46.5521 14.2812 45.7188C12.8854 44.8646 11.5729 43.8333 10.3438 42.625C9.11458 41.3958 8.04167 39.9479 7.125 38.2812C6.20833 36.6146 5.47917 34.6979 4.9375 32.5312C4.41667 30.3646 4.15625 27.9271 4.15625 25.2188C4.15625 21.9271 4.54167 19.0417 5.3125 16.5625C6.10417 14.0833 7.14583 11.9479 8.4375 10.1562C9.72917 8.36458 11.1979 6.88542 12.8438 5.71875C14.5104 4.53125 16.2188 3.59375 17.9688 2.90625C19.7188 2.21875 21.4479 1.73958 23.1562 1.46875C24.8854 1.17708 26.4479 1.03125 27.8438 1.03125C29.3854 1.03125 31.0312 1.1875 32.7812 1.5C34.5521 1.79167 36.3125 2.30208 38.0625 3.03125C39.8333 3.76042 41.5208 4.72917 43.125 5.9375C44.75 7.125 46.1875 8.61458 47.4375 10.4062C48.6875 12.1979 49.6771 14.3125 50.4062 16.75C51.1562 19.1875 51.5312 22.0104 51.5312 25.2188ZM43.25 25.2188C43.25 23.6146 43.1354 21.9583 42.9062 20.25C42.6979 18.5417 42.3438 16.875 41.8438 15.25C41.3646 13.625 40.7292 12.0938 39.9375 10.6562C39.1458 9.19792 38.1771 7.92708 37.0312 6.84375C35.8854 5.73958 34.5521 4.86458 33.0312 4.21875C31.5104 3.57292 29.7812 3.25 27.8438 3.25C25.8854 3.25 24.1458 3.57292 22.625 4.21875C21.1042 4.86458 19.7708 5.73958 18.625 6.84375C17.4792 7.92708 16.5104 9.19792 15.7188 10.6562C14.9271 12.0938 14.2812 13.625 13.7812 15.25C13.3021 16.875 12.9479 18.5417 12.7188 20.25C12.5104 21.9583 12.4062 23.6146 12.4062 25.2188C12.4062 26.7604 12.5104 28.3646 12.7188 30.0312C12.9271 31.6979 13.2708 33.3438 13.75 34.9688C14.2292 36.5729 14.8542 38.1042 15.625 39.5625C16.4167 41.0208 17.3854 42.3021 18.5312 43.4062C19.6771 44.5104 21.0104 45.3958 22.5312 46.0625C24.0729 46.7083 25.8438 47.0312 27.8438 47.0312C29.8021 47.0312 31.5417 46.7188 33.0625 46.0938C34.5833 45.4479 35.9167 44.5833 37.0625 43.5C38.2083 42.3958 39.1667 41.125 39.9375 39.6875C40.7292 38.2292 41.3646 36.6979 41.8438 35.0938C42.3438 33.4688 42.6979 31.8125 42.9062 30.125C43.1354 28.4375 43.25 26.8021 43.25 25.2188ZM57.5312 20.2812C58.2812 20.3229 59.0312 20.3646 59.7812 20.4062C60.5312 20.4479 61.125 20.4792 61.5625 20.5C62 20.5208 62.4062 20.5312 62.7812 20.5312C63.0938 20.5312 63.4583 20.5208 63.875 20.5C64.2917 20.4792 64.8542 20.4479 65.5625 20.4062C66.2917 20.3646 66.9896 20.3229 67.6562 20.2812C68.0312 20.4062 68.3333 20.7292 68.5625 21.25C68.5417 21.4167 68.5 21.6667 68.4375 22C68.3958 22.3125 68.3542 22.6979 68.3125 23.1562C68.2917 23.5938 68.2812 24.1354 68.2812 24.7812L68.2188 39.625C68.2188 43.375 69.3542 45.25 71.625 45.25C73.7292 45.25 76.7188 43.8646 80.5938 41.0938C80.5938 34.8854 80.5 29.4479 80.3125 24.7812C80.3125 24.4062 80.2396 24.0729 80.0938 23.7812C79.9479 23.4896 79.7188 23.2396 79.4062 23.0312C79.1146 22.8229 78.8438 22.6562 78.5938 22.5312C78.3646 22.3854 78.0208 22.2604 77.5625 22.1562C77.1042 22.0312 76.7812 21.9583 76.5938 21.9375C76.4062 21.8958 76.0938 21.8333 75.6562 21.75C75.5729 21.4167 75.5312 21.1667 75.5312 21C75.5312 20.8542 75.5729 20.6146 75.6562 20.2812C76.3854 20.3229 77.125 20.3646 77.875 20.4062C78.6458 20.4479 79.25 20.4792 79.6875 20.5C80.125 20.5208 80.5312 20.5312 80.9062 20.5312C81.2188 20.5312 81.5833 20.5208 82 20.5C82.4167 20.4792 82.9792 20.4479 83.6875 20.4062C84.4167 20.3646 85.1146 20.3229 85.7812 20.2812C85.8854 20.3438 85.9688 20.4062 86.0312 20.4688C86.1146 20.5104 86.1771 20.5729 86.2188 20.6562C86.2812 20.7188 86.3229 20.7708 86.3438 20.8125C86.3646 20.8333 86.3958 20.9062 86.4375 21.0312C86.4792 21.1354 86.5104 21.2083 86.5312 21.25C86.3646 22.375 86.2812 23.5521 86.2812 24.7812C86.1562 27.8438 86.0938 30.3333 86.0938 32.25C86.0938 33.25 86.1146 34.9271 86.1562 37.2812C86.1979 39.6354 86.2188 41.6979 86.2188 43.4688C87.4062 44.1562 89.4062 44.5833 92.2188 44.75C92.3229 45.2708 92.375 45.5417 92.375 45.5625C92.375 45.6875 92.3229 45.9062 92.2188 46.2188C88.2812 46.5938 84.7604 47.4479 81.6562 48.7812C81.1146 48.5521 80.7604 48.2708 80.5938 47.9375V43.0625C78.5104 44.8542 76.5417 46.2812 74.6875 47.3438C72.8542 48.3854 71 48.9062 69.125 48.9062C66.75 48.9062 65.0625 48.2396 64.0625 46.9062C63.0833 45.5729 62.5729 43.4792 62.5312 40.625L62.2812 24.7812C62.2396 24.3021 62.1458 23.9479 62 23.7188C61.875 23.4688 61.6562 23.2396 61.3438 23.0312C61.0521 22.8229 60.7812 22.6562 60.5312 22.5312C60.2812 22.3854 59.9271 22.2604 59.4688 22.1562C59.0104 22.0312 58.6875 21.9583 58.5 21.9375C58.3125 21.8958 57.9896 21.8333 57.5312 21.75C57.4479 21.4167 57.4062 21.1667 57.4062 21C57.4062 20.8542 57.4479 20.6146 57.5312 20.2812ZM97 22.2812C101.042 21.8646 104.562 21.0104 107.562 19.7188C108.083 19.9271 108.448 20.1979 108.656 20.5312C108.656 31.3438 108.74 39.0729 108.906 43.7188C108.927 44.2604 109.083 44.7292 109.375 45.125C109.688 45.5 110.125 45.7917 110.688 46C111.25 46.2083 111.719 46.3646 112.094 46.4688C112.469 46.5521 112.958 46.6354 113.562 46.7188C113.688 46.9688 113.75 47.2292 113.75 47.5C113.75 47.7708 113.688 48 113.562 48.1875C110.812 48.0625 108.146 48 105.562 48C103.021 48 100.375 48.0625 97.625 48.1875C97.5417 47.8542 97.5 47.625 97.5 47.5C97.5 47.3958 97.5417 47.1354 97.625 46.7188C98.3125 46.6354 98.875 46.5521 99.3125 46.4688C99.75 46.3646 100.292 46.2083 100.938 46C101.583 45.7917 102.073 45.5 102.406 45.125C102.74 44.7292 102.917 44.2604 102.938 43.7188C103.021 41.6562 103.062 39.1562 103.062 36.2188C103.062 35.2396 103.052 33.5729 103.031 31.2188C103.01 28.8646 103 26.8021 103 25.0312C101.812 24.3021 99.8125 23.875 97 23.75C96.9167 23.4167 96.875 23.1562 96.875 22.9688C96.875 22.8438 96.9167 22.6146 97 22.2812ZM101.906 9.21875C101.906 8.15625 102.281 7.25 103.031 6.5C103.802 5.75 104.708 5.375 105.75 5.375C106.812 5.375 107.719 5.75 108.469 6.5C109.219 7.25 109.594 8.15625 109.594 9.21875C109.594 10.2604 109.219 11.1667 108.469 11.9375C107.719 12.6875 106.812 13.0625 105.75 13.0625C104.708 13.0625 103.802 12.6875 103.031 11.9375C102.281 11.1667 101.906 10.2604 101.906 9.21875ZM143.281 39.875C143.781 39.9792 144.188 40.2083 144.5 40.5625C143.458 43.3542 141.844 45.4479 139.656 46.8438C137.469 48.2188 135.094 48.9062 132.531 48.9062C131.26 48.9062 130.021 48.7396 128.812 48.4062C127.604 48.0938 126.427 47.5729 125.281 46.8438C124.156 46.1146 123.167 45.2188 122.312 44.1562C121.479 43.0729 120.802 41.7292 120.281 40.125C119.781 38.5 119.531 36.7083 119.531 34.75C119.531 30.2292 120.917 26.5729 123.688 23.7812C126.458 20.9896 129.917 19.5938 134.062 19.5938C136.979 19.5938 139.354 20.2292 141.188 21.5C143.042 22.75 143.969 24.3542 143.969 26.3125C143.969 27.4167 143.604 28.3333 142.875 29.0625C142.146 29.7917 141.25 30.1562 140.188 30.1562C139.062 30.1562 138.156 29.8333 137.469 29.1875C136.781 28.5208 136.438 27.75 136.438 26.875C136.438 25.2917 137.24 24.2917 138.844 23.875C138.698 23.3958 138.229 22.9062 137.438 22.4062C136.646 21.8854 135.521 21.625 134.062 21.625C133.312 21.625 132.604 21.7188 131.938 21.9062C131.271 22.0729 130.552 22.4375 129.781 23C129.031 23.5625 128.385 24.3021 127.844 25.2188C127.323 26.1354 126.885 27.4167 126.531 29.0625C126.177 30.6875 126 32.5833 126 34.75C126 36.2083 126.146 37.5312 126.438 38.7188C126.75 39.9062 127.229 40.9792 127.875 41.9375C128.521 42.8958 129.406 43.6458 130.531 44.1875C131.656 44.7292 132.979 45 134.5 45C135.458 45 136.365 44.875 137.219 44.625C138.073 44.3542 138.76 44.0729 139.281 43.7812C139.823 43.4896 140.396 43.0521 141 42.4688C141.625 41.8646 142.042 41.4375 142.25 41.1875C142.458 40.9167 142.802 40.4792 143.281 39.875ZM168.188 46.7188C170.021 46.5312 170.938 46.0417 170.938 45.25C170.938 44.7917 170.708 44.2812 170.25 43.7188L161.719 32.7812H160.188C160.188 37.7604 160.25 41.4062 160.375 43.7188C160.375 44.2604 160.51 44.7292 160.781 45.125C161.073 45.5 161.49 45.7917 162.031 46C162.594 46.2083 163.052 46.3646 163.406 46.4688C163.781 46.5521 164.271 46.6354 164.875 46.7188C165 46.9688 165.062 47.2292 165.062 47.5C165.062 47.7708 165 48 164.875 48.1875C162.125 48.0625 159.521 48 157.062 48C154.521 48 151.875 48.0625 149.125 48.1875C149.042 47.8542 149 47.625 149 47.5C149 47.3958 149.042 47.1354 149.125 46.7188C149.812 46.6354 150.365 46.5521 150.781 46.4688C151.219 46.3646 151.76 46.2083 152.406 46C153.073 45.7917 153.573 45.5 153.906 45.125C154.24 44.7292 154.417 44.2604 154.438 43.7188C154.521 41.6562 154.552 35.1562 154.531 24.2188C154.51 13.2604 154.5 7.125 154.5 5.8125C153.312 5.125 151.312 4.69792 148.5 4.53125C148.396 4.26042 148.344 4.01042 148.344 3.78125C148.344 3.57292 148.396 3.33333 148.5 3.0625C152.458 2.6875 155.969 1.83333 159.031 0.5C159.594 0.729167 159.958 1.01042 160.125 1.34375L160.188 30.7812H161.812L168.125 24.7812C168.521 24.3229 168.719 23.8542 168.719 23.375C168.719 22.5 167.729 21.9583 165.75 21.75C165.667 21.4167 165.625 21.1875 165.625 21.0625C165.625 20.875 165.667 20.6146 165.75 20.2812C168.458 20.4062 170.615 20.4688 172.219 20.4688C173.969 20.4688 176.188 20.4062 178.875 20.2812C178.958 20.5312 179 20.75 179 20.9375C179 21.0625 178.958 21.3333 178.875 21.75C177.021 21.9583 175.49 22.2708 174.281 22.6875C173.073 23.0833 171.979 23.7812 171 24.7812L166.031 29.8125L177.031 43.7188C178.281 45.3438 180.156 46.3438 182.656 46.7188C182.74 47.1354 182.781 47.4167 182.781 47.5625C182.781 47.7292 182.74 47.9375 182.656 48.1875C179.969 48.0625 177.542 48 175.375 48C173.271 48 170.875 48.0625 168.188 48.1875C168.104 47.8542 168.062 47.6042 168.062 47.4375C168.062 47.2917 168.104 47.0521 168.188 46.7188ZM183.812 2.0625C188.479 2.22917 192.208 2.3125 195 2.3125C200.208 2.14583 203.406 2.0625 204.594 2.0625C206.531 2.0625 208.354 2.14583 210.062 2.3125C211.771 2.47917 213.531 2.79167 215.344 3.25C217.177 3.6875 218.833 4.27083 220.312 5C221.792 5.70833 223.208 6.65625 224.562 7.84375C225.917 9.03125 227.052 10.4062 227.969 11.9688C228.885 13.5312 229.615 15.4167 230.156 17.625C230.698 19.8125 230.969 22.2396 230.969 24.9062C230.802 27.4688 230.354 29.8229 229.625 31.9688C228.917 34.1146 228 35.9688 226.875 37.5312C225.771 39.0938 224.458 40.4896 222.938 41.7188C221.417 42.9479 219.823 43.9479 218.156 44.7188C216.51 45.4896 214.719 46.125 212.781 46.625C210.865 47.125 208.99 47.4792 207.156 47.6875C205.344 47.8958 203.469 48 201.531 48C193.719 48 187.792 48.0625 183.75 48.1875C183.667 47.9375 183.625 47.7292 183.625 47.5625C183.625 47.4167 183.667 47.1354 183.75 46.7188C184.375 46.6562 184.875 46.6042 185.25 46.5625C185.625 46.5208 186.135 46.4479 186.781 46.3438C187.448 46.2396 187.979 46.125 188.375 46C188.792 45.8542 189.219 45.6771 189.656 45.4688C190.094 45.2604 190.417 45.0104 190.625 44.7188C190.854 44.4271 190.969 44.0938 190.969 43.7188C191.219 37.1979 191.344 30.625 191.344 24C191.344 17.25 191.24 11.4271 191.031 6.53125C191.01 5.98958 190.771 5.53125 190.312 5.15625C189.854 4.76042 189.188 4.45833 188.312 4.25C187.458 4.04167 186.729 3.89583 186.125 3.8125C185.542 3.70833 184.771 3.61458 183.812 3.53125C183.729 3.15625 183.688 2.89583 183.688 2.75C183.688 2.625 183.729 2.39583 183.812 2.0625ZM198.344 6.53125C198.073 13.6146 197.938 20.2083 197.938 26.3125C197.938 29.6875 198.052 36.1458 198.281 45.6875C199.177 45.7292 200.458 45.75 202.125 45.75C205.5 45.75 208.5 45.2396 211.125 44.2188C213.75 43.1771 215.906 41.7292 217.594 39.875C219.281 38.0208 220.552 35.8333 221.406 33.3125C222.281 30.7708 222.719 27.9688 222.719 24.9062C222.719 23.3229 222.594 21.7708 222.344 20.25C222.094 18.7292 221.698 17.1771 221.156 15.5938C220.615 14.0104 219.865 12.5521 218.906 11.2188C217.948 9.88542 216.802 8.69792 215.469 7.65625C214.156 6.59375 212.531 5.77083 210.594 5.1875C208.677 4.58333 206.552 4.28125 204.219 4.28125C202.073 4.28125 200.115 4.41667 198.344 4.6875V6.53125ZM237.5 22.2812C241.542 21.8646 245.062 21.0104 248.062 19.7188C248.583 19.9271 248.948 20.1979 249.156 20.5312V25.9062C249.927 24.4479 251.073 23.0312 252.594 21.6562C254.135 20.2812 255.74 19.5938 257.406 19.5938C258.656 19.5938 259.667 19.9688 260.438 20.7188C261.229 21.4479 261.625 22.4583 261.625 23.75C261.625 24.9792 261.26 25.9375 260.531 26.625C259.802 27.3125 258.885 27.6562 257.781 27.6562C256.76 27.6562 255.917 27.3333 255.25 26.6875C254.604 26.0208 254.25 25.1458 254.188 24.0625C253.312 24.4375 252.312 25.2708 251.188 26.5625C250.083 27.8542 249.406 29.1354 249.156 30.4062C249.156 35.0521 249.24 39.4896 249.406 43.7188C249.427 44.2604 249.625 44.7292 250 45.125C250.375 45.5 250.927 45.7917 251.656 46C252.385 46.2083 252.99 46.3646 253.469 46.4688C253.948 46.5521 254.573 46.6354 255.344 46.7188C255.469 46.9688 255.531 47.2292 255.531 47.5C255.531 47.7083 255.469 47.9375 255.344 48.1875C252.219 48.0625 249.125 48 246.062 48C243.521 48 240.875 48.0625 238.125 48.1875C238.042 47.8542 238 47.625 238 47.5C238 47.3958 238.042 47.1354 238.125 46.7188C238.812 46.6354 239.375 46.5521 239.812 46.4688C240.25 46.3646 240.792 46.2083 241.438 46C242.083 45.7917 242.573 45.5 242.906 45.125C243.24 44.7292 243.417 44.2604 243.438 43.7188C243.521 41.6562 243.562 39.1562 243.562 36.2188C243.562 35.2396 243.552 33.5729 243.531 31.2188C243.51 28.8646 243.5 26.8021 243.5 25.0312C242.312 24.3021 240.312 23.875 237.5 23.75C237.417 23.4167 237.375 23.1562 237.375 22.9688C237.375 22.8438 237.417 22.6146 237.5 22.2812ZM265.625 22.2812C269.667 21.8646 273.188 21.0104 276.188 19.7188C276.708 19.9271 277.073 20.1979 277.281 20.5312C277.281 31.3438 277.365 39.0729 277.531 43.7188C277.552 44.2604 277.708 44.7292 278 45.125C278.312 45.5 278.75 45.7917 279.312 46C279.875 46.2083 280.344 46.3646 280.719 46.4688C281.094 46.5521 281.583 46.6354 282.188 46.7188C282.312 46.9688 282.375 47.2292 282.375 47.5C282.375 47.7708 282.312 48 282.188 48.1875C279.438 48.0625 276.771 48 274.188 48C271.646 48 269 48.0625 266.25 48.1875C266.167 47.8542 266.125 47.625 266.125 47.5C266.125 47.3958 266.167 47.1354 266.25 46.7188C266.938 46.6354 267.5 46.5521 267.938 46.4688C268.375 46.3646 268.917 46.2083 269.562 46C270.208 45.7917 270.698 45.5 271.031 45.125C271.365 44.7292 271.542 44.2604 271.562 43.7188C271.646 41.6562 271.688 39.1562 271.688 36.2188C271.688 35.2396 271.677 33.5729 271.656 31.2188C271.635 28.8646 271.625 26.8021 271.625 25.0312C270.438 24.3021 268.438 23.875 265.625 23.75C265.542 23.4167 265.5 23.1562 265.5 22.9688C265.5 22.8438 265.542 22.6146 265.625 22.2812ZM270.531 9.21875C270.531 8.15625 270.906 7.25 271.656 6.5C272.427 5.75 273.333 5.375 274.375 5.375C275.438 5.375 276.344 5.75 277.094 6.5C277.844 7.25 278.219 8.15625 278.219 9.21875C278.219 10.2604 277.844 11.1667 277.094 11.9375C276.344 12.6875 275.438 13.0625 274.375 13.0625C273.333 13.0625 272.427 12.6875 271.656 11.9375C270.906 11.1667 270.531 10.2604 270.531 9.21875ZM283.156 20.2812C285.906 20.4062 288.677 20.4688 291.469 20.4688C293.823 20.4688 296.344 20.4062 299.031 20.2812C299.115 20.6146 299.156 20.875 299.156 21.0625C299.156 21.1875 299.115 21.4167 299.031 21.75C298.448 21.7917 297.969 21.8438 297.594 21.9062C297.24 21.9479 296.792 22.0312 296.25 22.1562C295.708 22.2812 295.302 22.4688 295.031 22.7188C294.76 22.9688 294.625 23.2708 294.625 23.625C294.625 23.8125 294.708 24.1979 294.875 24.7812L300.562 40.5625H300.75L307.406 24.7812C307.635 24.2188 307.75 23.7708 307.75 23.4375C307.75 22.4792 306.552 21.9167 304.156 21.75C304.073 21.4167 304.031 21.1875 304.031 21.0625C304.031 20.875 304.073 20.6146 304.156 20.2812C306.594 20.4062 308.104 20.4688 308.688 20.4688C310.438 20.4688 312.656 20.4062 315.344 20.2812C315.427 20.5312 315.469 20.75 315.469 20.9375C315.469 21.0625 315.427 21.3333 315.344 21.75C312.865 21.8542 311.177 22.8646 310.281 24.7812L299.594 48.9062H298.062L288.594 24.7812C288.385 24.2396 288.073 23.7812 287.656 23.4062C287.26 23.0104 286.74 22.7083 286.094 22.5C285.469 22.2708 284.979 22.1146 284.625 22.0312C284.292 21.9479 283.802 21.8542 283.156 21.75C283.073 21.5833 283.031 21.3542 283.031 21.0625C283.031 20.75 283.073 20.4896 283.156 20.2812ZM341.75 31.4375H324.719C324.635 32.6875 324.594 33.7917 324.594 34.75C324.656 37.8542 325.562 40.3438 327.312 42.2188C329.062 44.0729 331.406 45 334.344 45C335.135 45 335.875 44.9167 336.562 44.75C337.25 44.5625 337.812 44.3542 338.25 44.125C338.708 43.8958 339.177 43.5625 339.656 43.125C340.135 42.6875 340.479 42.3438 340.688 42.0938C340.917 41.8229 341.219 41.4271 341.594 40.9062C341.969 40.3646 342.219 40.0208 342.344 39.875C342.844 39.9792 343.25 40.2083 343.562 40.5625C342.521 43.3542 340.906 45.4479 338.719 46.8438C336.531 48.2188 334.156 48.9062 331.594 48.9062C330.323 48.9062 329.083 48.7396 327.875 48.4062C326.688 48.0938 325.531 47.5729 324.406 46.8438C323.281 46.1146 322.302 45.2188 321.469 44.1562C320.635 43.0729 319.969 41.7292 319.469 40.125C318.969 38.5 318.719 36.7083 318.719 34.75C318.719 30.3542 320.062 26.7292 322.75 23.875C325.438 21.0208 328.74 19.5938 332.656 19.5938C334.385 19.5938 335.885 19.8438 337.156 20.3438C338.448 20.8229 339.448 21.4792 340.156 22.3125C340.885 23.1458 341.417 24.0625 341.75 25.0625C342.104 26.0417 342.281 27.0938 342.281 28.2188C342.281 29.2604 342.104 30.3333 341.75 31.4375ZM331.906 21.625C330.469 21.625 329.104 22.2604 327.812 23.5312C326.542 24.8021 325.625 26.7292 325.062 29.3125H336.312C336.521 28.5208 336.625 27.8333 336.625 27.25C336.625 25.625 336.25 24.2812 335.5 23.2188C334.75 22.1562 333.552 21.625 331.906 21.625Z" fill="black"/>
<path d="M50.8125 32.125L51.786 32.3535L51.7866 32.3513L50.8125 32.125ZM48.8125 37.6562L47.9249 37.1956L47.9227 37.1999L48.8125 37.6562ZM45.8438 41.9688L46.5752 42.6507L46.5809 42.6445L45.8438 41.9688ZM42.125 45.1562L42.6737 45.9923L42.6827 45.9863L42.125 45.1562ZM37.9375 47.3438L38.3019 48.275L38.3089 48.2722L37.9375 47.3438ZM33.5938 48.625L33.3976 47.6444L32.1592 47.8921L32.6843 49.0408L33.5938 48.625ZM34.6562 50.8438L33.7618 51.291L33.7667 51.3006L34.6562 50.8438ZM38 55.375L37.2928 56.0822L37.3026 56.0917L38 55.375ZM40.7812 57.5938L40.2229 58.4234L40.2302 58.4282L40.7812 57.5938ZM44.6562 59.7188L45.0833 58.8145L45.0777 58.8119L44.6562 59.7188ZM49.9062 61.75L50.7062 61.15L50.5157 60.896L50.2135 60.7984L49.9062 61.75ZM49.9688 63.2188V64.2188H50.3387L50.6195 63.978L49.9688 63.2188ZM41.7188 62.375L41.5139 63.3538L41.5154 63.3541L41.7188 62.375ZM34.125 59.75L34.5722 58.8556L34.569 58.854L34.125 59.75ZM27.7188 55.2812L28.4058 54.5547L28.4016 54.5507L27.7188 55.2812ZM22.9688 48.8438L23.8632 48.3965L23.6335 47.9371L23.1262 47.8562L22.9688 48.8438ZM18.5938 47.75L18.2616 48.6933L18.2735 48.6973L18.5938 47.75ZM14.2812 45.7188L13.7593 46.5718L13.7686 46.5774L14.2812 45.7188ZM10.3438 42.625L9.63662 43.3321L9.64271 43.3381L10.3438 42.625ZM4.9375 32.5312L3.96516 32.765L3.96736 32.7738L4.9375 32.5312ZM5.3125 16.5625L4.35986 16.2583L4.35759 16.2656L5.3125 16.5625ZM12.8438 5.71875L13.4221 6.53457L13.424 6.53317L12.8438 5.71875ZM23.1562 1.46875L23.3128 2.45646L23.3226 2.45482L23.1562 1.46875ZM32.7812 1.5L32.6054 2.48452L32.6187 2.48671L32.7812 1.5ZM38.0625 3.03125L37.6779 3.95434L37.6818 3.95593L38.0625 3.03125ZM43.125 5.9375L42.5233 6.73625L42.5291 6.74061L42.535 6.74489L43.125 5.9375ZM50.4062 16.75L49.4482 17.0366L49.4505 17.0441L50.4062 16.75ZM42.9062 20.25L41.9135 20.3711L41.9151 20.383L42.9062 20.25ZM41.8438 15.25L40.8845 15.5329L40.888 15.5441L41.8438 15.25ZM39.9375 10.6562L39.0586 11.1334L39.0616 11.1387L39.9375 10.6562ZM37.0312 6.84375L36.3373 7.56386L36.3442 7.5704L37.0312 6.84375ZM33.0312 4.21875L32.6404 5.13919L33.0312 4.21875ZM18.625 6.84375L19.312 7.57043L19.3189 7.56383L18.625 6.84375ZM15.7188 10.6562L16.5947 11.1387L16.5976 11.1333L15.7188 10.6562ZM13.7812 15.25L12.8254 14.9559L12.8221 14.9672L13.7812 15.25ZM12.7188 20.25L11.7276 20.117L11.7261 20.1289L12.7188 20.25ZM13.75 34.9688L12.7908 35.2516L12.7918 35.255L13.75 34.9688ZM15.625 39.5625L14.7409 40.0298L14.7461 40.0396L15.625 39.5625ZM18.5312 43.4062L17.8374 44.1263L18.5312 43.4062ZM22.5312 46.0625L22.1298 46.9784L22.1373 46.9817L22.1449 46.9848L22.5312 46.0625ZM33.0625 46.0938L33.4426 47.0188L33.4534 47.0142L33.0625 46.0938ZM37.0625 43.5L37.7495 44.2267L37.7564 44.2201L37.0625 43.5ZM39.9375 39.6875L39.0586 39.2104L39.0562 39.2149L39.9375 39.6875ZM41.8438 35.0938L40.8879 34.7997L40.8856 34.8075L41.8438 35.0938ZM42.9062 30.125L41.9153 29.9904L41.9138 30.0025L42.9062 30.125ZM50.5312 25.2188C50.5312 27.6989 50.2973 29.9234 49.8384 31.8987L51.7866 32.3513C52.286 30.2016 52.5312 27.8219 52.5312 25.2188H50.5312ZM49.839 31.8965C49.3763 33.8679 48.7363 35.6322 47.9249 37.1956L49.7001 38.1169C50.597 36.3887 51.2904 34.4655 51.786 32.3535L49.839 31.8965ZM47.9227 37.1999C47.1271 38.7514 46.1875 40.1139 45.1066 41.293L46.5809 42.6445C47.7917 41.3236 48.8313 39.8111 49.7023 38.1126L47.9227 37.1999ZM45.1123 41.2869C44.0161 42.4627 42.8344 43.4749 41.5673 44.3262L42.6827 45.9863C44.0823 45.046 45.3797 43.9331 46.5752 42.6506L45.1123 41.2869ZM41.5763 44.3202C40.298 45.1591 38.9615 45.8571 37.5661 46.4153L38.3089 48.2722C39.8302 47.6637 41.2853 46.9034 42.6737 45.9923L41.5763 44.3202ZM37.5731 46.4125C36.1881 46.9545 34.7964 47.3647 33.3976 47.6444L33.7899 49.6056C35.3078 49.302 36.8119 48.858 38.3019 48.275L37.5731 46.4125ZM32.6843 49.0408C33.0227 49.781 33.3819 50.531 33.7618 51.291L35.5507 50.3965C35.1806 49.6565 34.8315 48.9274 34.5032 48.2092L32.6843 49.0408ZM33.7667 51.3006C34.187 52.1191 34.6826 52.9224 35.2518 53.7105L36.8732 52.5395C36.359 51.8276 35.9171 51.1101 35.5458 50.3869L33.7667 51.3006ZM35.2518 53.7105C35.8288 54.5095 36.5105 55.2997 37.2929 56.0821L38.7071 54.6679C37.9895 53.9503 37.3795 53.2405 36.8732 52.5395L35.2518 53.7105ZM37.3026 56.0917C38.1243 56.8912 39.1001 57.6676 40.2229 58.4233L41.3396 56.7642C40.2958 56.0616 39.4174 55.3588 38.6974 54.6583L37.3026 56.0917ZM40.2302 58.4282C41.3839 59.1901 42.7206 59.9218 44.2348 60.6256L45.0777 58.8119C43.6336 58.1407 42.3869 57.4557 41.3323 56.7593L40.2302 58.4282ZM44.2292 60.623C45.7767 61.3538 47.5683 62.0459 49.599 62.7016L50.2135 60.7984C48.2442 60.1625 46.5358 59.5004 45.0833 58.8145L44.2292 60.623ZM49.1063 62.35C49.1847 62.4546 49.1875 62.509 49.1875 62.5312H51.1875C51.1875 62.0118 51.0028 61.5454 50.7062 61.15L49.1063 62.35ZM49.1875 62.5312C49.1875 62.5788 49.1849 62.6121 49.1821 62.6332C49.1794 62.6544 49.1771 62.6586 49.1799 62.6499C49.1857 62.6317 49.2181 62.5451 49.318 62.4595L50.6195 63.978C51.1055 63.5615 51.1875 62.9523 51.1875 62.5312H49.1875ZM49.9688 62.2188C47.2448 62.2188 44.5629 61.9444 41.9221 61.3959L41.5154 63.3541C44.2912 63.9306 47.1094 64.2188 49.9688 64.2188V62.2188ZM41.9236 61.3962C39.3173 60.8507 36.8678 60.0034 34.5722 58.8556L33.6778 60.6444C36.1322 61.8716 38.7452 62.7743 41.5139 63.3538L41.9236 61.3962ZM34.569 58.854C32.3042 57.7316 30.2506 56.2992 28.4058 54.5547L27.0317 56.0078C29.0202 57.8883 31.2375 59.4351 33.681 60.646L34.569 58.854ZM28.4016 54.5507C26.5773 52.8454 25.0635 50.7973 23.8632 48.3965L22.0743 49.291C23.374 51.8902 25.0269 54.1338 27.0359 56.0118L28.4016 54.5507ZM23.1262 47.8562C21.7478 47.6365 20.3439 47.286 18.914 46.8027L18.2735 48.6973C19.8019 49.214 21.3147 49.5927 22.8113 49.8313L23.1262 47.8562ZM18.9259 46.8068C17.5118 46.3088 16.1346 45.6606 14.7939 44.8601L13.7686 46.5774C15.2196 47.4436 16.7174 48.1495 18.2616 48.6932L18.9259 46.8068ZM14.8032 44.8658C13.4755 44.0533 12.2226 43.0698 11.0448 41.9119L9.64271 43.3381C10.9232 44.5969 12.2953 45.6758 13.7593 46.5717L14.8032 44.8658ZM11.0509 41.9179C9.89436 40.7614 8.87666 39.3911 8.00122 37.7993L6.24878 38.7632C7.20667 40.5048 8.33481 42.0303 9.63664 43.3321L11.0509 41.9179ZM8.00122 37.7993C7.13249 36.2198 6.43195 34.386 5.90764 32.2887L3.96736 32.7738C4.52638 35.0099 5.28418 37.0093 6.24878 38.7632L8.00122 37.7993ZM5.9098 32.2975C5.41081 30.2217 5.15625 27.8646 5.15625 25.2188H3.15625C3.15625 27.9896 3.42252 30.5075 3.9652 32.765L5.9098 32.2975ZM5.15625 25.2188C5.15625 22.0021 5.53322 19.2207 6.26741 16.8594L4.35759 16.2656C3.55011 18.8626 3.15625 21.852 3.15625 25.2188H5.15625ZM6.26511 16.8667C7.03028 14.4705 8.02851 12.4335 9.24868 10.7411L7.62632 9.57145C6.26316 11.4623 5.17805 13.6962 4.35989 16.2583L6.26511 16.8667ZM9.24868 10.7411C10.482 9.03024 11.8741 7.63182 13.4221 6.53457L12.2654 4.90293C10.5217 6.13901 8.97628 7.69892 7.62632 9.57145L9.24868 10.7411ZM13.424 6.53317C15.03 5.38892 16.6668 4.49213 18.3344 3.837L17.6031 1.9755C15.7707 2.69537 13.9908 3.67358 12.2635 4.90433L13.424 6.53317ZM18.3344 3.837C20.0228 3.17371 21.6819 2.71497 23.3128 2.45642L22.9997 0.481085C21.2139 0.764195 19.4147 1.26379 17.6031 1.9755L18.3344 3.837ZM23.3226 2.45482C25.01 2.17019 26.5157 2.03125 27.8438 2.03125V0.03125C26.3802 0.03125 24.7608 0.18398 22.9899 0.482679L23.3226 2.45482ZM27.8438 2.03125C29.3183 2.03125 30.9049 2.18075 32.6055 2.48443L32.957 0.515572C31.1576 0.194246 29.4525 0.03125 27.8438 0.03125V2.03125ZM32.6187 2.48671C34.3092 2.76513 35.9952 3.25321 37.6779 3.95433L38.4471 2.10817C36.6298 1.35096 34.795 0.818204 32.9438 0.513294L32.6187 2.48671ZM37.6818 3.95593C39.3701 4.65115 40.9838 5.57663 42.5233 6.73625L43.7267 5.13875C42.0578 3.8817 40.2965 2.86968 38.4432 2.10657L37.6818 3.95593ZM42.535 6.74489C44.0635 7.86189 45.4252 9.26961 46.6174 10.9784L48.2576 9.83407C46.9498 7.95956 45.4365 6.38811 43.715 5.13011L42.535 6.74489ZM46.6174 10.9784C47.7974 12.6698 48.7446 14.6846 49.4482 17.0366L51.3643 16.4634C50.6096 13.9404 49.5776 11.726 48.2576 9.83407L46.6174 10.9784ZM49.4505 17.0441C50.1647 19.3654 50.5312 22.0856 50.5312 25.2188H52.5312C52.5312 21.9352 52.1478 19.0096 51.362 16.4559L49.4505 17.0441ZM44.25 25.2188C44.25 23.567 44.132 21.8662 43.8974 20.117L41.9151 20.383C42.1388 22.0504 42.25 23.6622 42.25 25.2188H44.25ZM43.8989 20.1289C43.6835 18.3627 43.3171 16.6381 42.7995 14.9559L40.888 15.5441C41.3704 17.1119 41.7123 18.7207 41.9136 20.3711L43.8989 20.1289ZM42.8029 14.9672C42.304 13.2751 41.6411 11.6767 40.8134 10.1738L39.0616 11.1387C39.8172 12.5108 40.4252 13.9749 40.8846 15.5328L42.8029 14.9672ZM40.8164 10.1792C39.977 8.63292 38.9447 7.27669 37.7183 6.1171L36.3442 7.5704C37.4094 8.57747 38.3147 9.76292 39.0586 11.1333L40.8164 10.1792ZM37.7251 6.12367C36.488 4.93154 35.051 3.99001 33.4221 3.29831L32.6404 5.13919C34.0532 5.73916 35.2828 6.54763 36.3374 7.56383L37.7251 6.12367ZM33.4221 3.29831C31.7582 2.59172 29.8927 2.25 27.8438 2.25V4.25C29.6698 4.25 31.2626 4.55412 32.6404 5.13919L33.4221 3.29831ZM27.8438 2.25C25.7756 2.25 23.8993 2.59119 22.2341 3.29831L23.0159 5.13919C24.3924 4.55465 25.9953 4.25 27.8438 4.25V2.25ZM22.2341 3.29831C20.6053 3.99001 19.1682 4.93154 17.9311 6.12367L19.3189 7.56383C20.3734 6.54763 21.6031 5.73916 23.0159 5.13919L22.2341 3.29831ZM17.938 6.1171C16.7115 7.27669 15.6793 8.63292 14.8399 10.1792L16.5976 11.1333C17.3415 9.76292 18.2468 8.57747 19.312 7.5704L17.938 6.1171ZM14.8428 10.1738C14.017 11.6733 13.3449 13.2679 12.8255 14.9559L14.737 15.5441C15.2176 13.9821 15.8372 12.5142 16.5947 11.1387L14.8428 10.1738ZM12.8221 14.9672C12.3282 16.6421 11.9635 18.3589 11.7276 20.117L13.7099 20.383C13.9324 18.7244 14.276 17.1079 14.7404 15.5328L12.8221 14.9672ZM11.7261 20.1289C11.5132 21.8746 11.4062 23.5713 11.4062 25.2188H13.4062C13.4062 23.6578 13.5076 22.0421 13.7114 20.3711L11.7261 20.1289ZM11.4062 25.2188C11.4062 26.8054 11.5134 28.4511 11.7265 30.1553L13.711 29.9072C13.5074 28.2781 13.4062 26.7155 13.4062 25.2188H11.4062ZM11.7265 30.1553C11.9416 31.8762 12.2965 33.5751 12.7908 35.2516L14.7092 34.6859C14.2452 33.1124 13.9126 31.5197 13.711 29.9072L11.7265 30.1553ZM12.7918 35.255C13.2894 36.9208 13.9391 38.5128 14.7409 40.0298L16.5091 39.0952C15.7693 37.6955 15.1689 36.225 14.7082 34.6825L12.7918 35.255ZM14.7461 40.0396C15.5846 41.584 16.6147 42.9481 17.8374 44.1263L19.2251 42.6862C18.1562 41.6561 17.2488 40.4576 16.5039 39.0854L14.7461 40.0396ZM17.8374 44.1263C19.072 45.3161 20.5054 46.2663 22.1298 46.9784L22.9327 45.1466C21.5154 44.5253 20.2822 43.7048 19.2251 42.6862L17.8374 44.1263ZM22.1449 46.9848C23.8304 47.691 25.7366 48.0312 27.8438 48.0312V46.0312C25.9509 46.0312 24.3154 45.7257 22.9176 45.1402L22.1449 46.9848ZM27.8438 48.0312C29.9081 48.0312 31.7805 47.7018 33.4426 47.0187L32.6824 45.1688C31.3028 45.7357 29.6961 46.0312 27.8438 46.0312V48.0312ZM33.4534 47.0142C35.0784 46.3241 36.5132 45.3955 37.7495 44.2266L36.3755 42.7734C35.3201 43.7711 34.0883 44.5717 32.6716 45.1733L33.4534 47.0142ZM37.7564 44.2201C38.9791 43.0419 40 41.687 40.8188 40.1601L39.0562 39.2149C38.3333 40.563 37.4376 41.7498 36.3686 42.7799L37.7564 44.2201ZM40.8164 40.1646C41.6413 38.645 42.3032 37.0497 42.8019 35.38L40.8856 34.8075C40.426 36.3461 39.8171 37.8133 39.0586 39.2104L40.8164 40.1646ZM42.7995 35.3878C43.3168 33.7068 43.6832 31.9932 43.8987 30.2475L41.9138 30.0025C41.7126 31.6318 41.3707 33.2307 40.888 34.7997L42.7995 35.3878ZM43.8972 30.2596C44.1319 28.5308 44.25 26.8503 44.25 25.2188H42.25C42.25 26.7538 42.1389 28.3442 41.9153 29.9904L43.8972 30.2596ZM57.5312 20.2812L57.5867 19.2828L56.7615 19.2369L56.5611 20.0387L57.5312 20.2812ZM65.5625 20.4062L65.5055 19.4079L65.5038 19.408L65.5625 20.4062ZM67.6562 20.2812L67.9725 19.3326L67.788 19.2711L67.5939 19.2832L67.6562 20.2812ZM68.5625 21.25L69.5548 21.374L69.589 21.1L69.4778 20.8473L68.5625 21.25ZM68.4375 22L67.4546 21.8157L67.4498 21.8417L67.4463 21.8678L68.4375 22ZM68.3125 23.1562L67.3166 23.0657L67.3147 23.0872L67.3136 23.1087L68.3125 23.1562ZM68.2812 24.7812L69.2812 24.7855V24.7812H68.2812ZM68.2188 39.625L67.2188 39.6208V39.625H68.2188ZM80.5938 41.0938L81.1754 41.9072L81.5938 41.608V41.0938H80.5938ZM80.3125 24.7812H79.3125V24.8013L79.3133 24.8214L80.3125 24.7812ZM79.4062 23.0312L78.825 23.845L78.8381 23.8544L78.8515 23.8633L79.4062 23.0312ZM78.5938 22.5312L78.0569 23.3749L78.1004 23.4026L78.1465 23.4257L78.5938 22.5312ZM77.5625 22.1562L77.2994 23.121L77.32 23.1266L77.3409 23.1314L77.5625 22.1562ZM76.5938 21.9375L76.3768 22.9137L76.4296 22.9254L76.4833 22.9314L76.5938 21.9375ZM75.6562 21.75L74.6861 21.9925L74.8412 22.6127L75.4691 22.7323L75.6562 21.75ZM75.6562 20.2812L75.7133 19.2829L74.8869 19.2357L74.6861 20.0387L75.6562 20.2812ZM77.875 20.4062L77.8195 21.4047L77.821 21.4048L77.875 20.4062ZM83.6875 20.4062L83.6305 19.4079L83.6288 19.408L83.6875 20.4062ZM85.7812 20.2812L86.2957 19.4238L86.0292 19.2638L85.7189 19.2832L85.7812 20.2812ZM86.0312 20.4688L85.3241 21.1759L85.4389 21.2906L85.584 21.3632L86.0312 20.4688ZM86.2188 20.6562L85.3243 21.1035L85.3969 21.2486L85.5116 21.3634L86.2188 20.6562ZM86.3438 20.8125L85.4493 21.2597L85.5219 21.4049L85.6366 21.5196L86.3438 20.8125ZM86.4375 21.0312L85.4888 21.3475L85.4981 21.3754L85.509 21.4026L86.4375 21.0312ZM86.5312 21.25L87.5205 21.3965L87.5666 21.0847L87.4257 20.8028L86.5312 21.25ZM86.2812 24.7812L87.2804 24.822L87.2812 24.8016V24.7812H86.2812ZM86.2188 43.4688H85.2188V44.0453L85.7177 44.3342L86.2188 43.4688ZM92.2188 44.75L93.1993 44.5539L93.048 43.7974L92.2779 43.7518L92.2188 44.75ZM92.2188 46.2188L92.3136 47.2142L92.9616 47.1525L93.1674 46.535L92.2188 46.2188ZM81.6562 48.7812L81.2666 49.7022L81.6592 49.8683L82.0509 49.7001L81.6562 48.7812ZM80.5938 47.9375H79.5938V48.1736L79.6993 48.3847L80.5938 47.9375ZM80.5938 43.0625H81.5938V40.8836L79.9417 42.3043L80.5938 43.0625ZM74.6875 47.3438L75.1815 48.2132L75.1847 48.2114L74.6875 47.3438ZM64.0625 46.9062L63.2565 47.4982L63.2625 47.5062L64.0625 46.9062ZM62.5312 40.625L63.5311 40.6104L63.5311 40.6092L62.5312 40.625ZM62.2812 24.7812L63.2811 24.7655L63.2806 24.73L63.2775 24.6946L62.2812 24.7812ZM62 23.7188L61.1056 24.166L61.1286 24.2121L61.1563 24.2556L62 23.7188ZM61.3438 23.0312L60.7625 23.845L60.7756 23.8544L60.789 23.8633L61.3438 23.0312ZM60.5312 22.5312L60.0274 23.395L60.0552 23.4113L60.084 23.4257L60.5312 22.5312ZM59.4688 22.1562L59.2056 23.121L59.2263 23.1266L59.2471 23.1314L59.4688 22.1562ZM58.5 21.9375L58.2831 22.9137L58.3358 22.9254L58.3896 22.9314L58.5 21.9375ZM57.5312 21.75L56.5611 21.9925L56.7176 22.6185L57.3524 22.7339L57.5312 21.75ZM57.4758 21.2797C57.5635 21.2846 57.6694 21.2905 57.757 21.2953C57.8447 21.3002 57.9506 21.3061 58.0383 21.311C58.126 21.3158 58.2319 21.3217 58.3195 21.3266C58.4072 21.3315 58.5131 21.3373 58.6008 21.3422C58.6064 21.3425 58.6655 21.3458 58.6711 21.3461C58.6767 21.3464 58.7358 21.3497 58.7414 21.35C58.747 21.3503 58.8061 21.3536 58.8117 21.3539C58.8174 21.3542 58.8764 21.3575 58.882 21.3578C58.8877 21.3581 58.9467 21.3614 58.9523 21.3617C58.958 21.3621 59.017 21.3653 59.0227 21.3656C59.0283 21.366 59.0873 21.3692 59.093 21.3696C59.0986 21.3699 59.1576 21.3731 59.1633 21.3735C59.1689 21.3738 59.228 21.3771 59.2336 21.3774C59.2392 21.3777 59.2983 21.381 59.3039 21.3813C59.3095 21.3816 59.3686 21.3849 59.3742 21.3852C59.3799 21.3855 59.4389 21.3888 59.4445 21.3891C59.4502 21.3894 59.5092 21.3927 59.5148 21.393C59.5205 21.3933 59.5795 21.3966 59.5852 21.3969C59.5908 21.3972 59.6498 21.4005 59.6555 21.4008C59.6607 21.4011 59.7206 21.4044 59.7258 21.4047L59.8367 19.4078C59.7464 19.4028 59.6457 19.3972 59.5555 19.3922C59.4678 19.3873 59.3619 19.3814 59.2742 19.3765C59.1865 19.3717 59.0806 19.3658 58.993 19.3609C58.9053 19.356 58.7994 19.3502 58.7117 19.3453C58.7061 19.345 58.647 19.3417 58.6414 19.3414C58.6358 19.3411 58.5767 19.3378 58.5711 19.3375C58.5655 19.3372 58.5064 19.3339 58.5008 19.3336C58.4951 19.3333 58.4361 19.33 58.4305 19.3297C58.4248 19.3294 58.3658 19.3261 58.3602 19.3258C58.3545 19.3254 58.2955 19.3222 58.2898 19.3219C58.2842 19.3215 58.2252 19.3183 58.2195 19.3179C58.2139 19.3176 58.1549 19.3144 58.1492 19.314C58.1436 19.3137 58.0845 19.3104 58.0789 19.3101C58.0733 19.3098 58.0142 19.3065 58.0086 19.3062C58.003 19.3059 57.9439 19.3026 57.9383 19.3023C57.9326 19.302 57.8736 19.2987 57.868 19.2984C57.8623 19.2981 57.8033 19.2948 57.7977 19.2945C57.792 19.2942 57.733 19.2909 57.7273 19.2906C57.7218 19.2903 57.6626 19.287 57.657 19.2867C57.6515 19.2864 57.5923 19.2831 57.5867 19.2828L57.4758 21.2797ZM59.7258 21.4047C60.4768 21.4464 61.0736 21.4779 61.5149 21.4989L61.6101 19.5011C61.1764 19.4805 60.5857 19.4494 59.8367 19.4078L59.7258 21.4047ZM61.5149 21.4989C61.9657 21.5203 62.388 21.5312 62.7812 21.5312V19.5312C62.4245 19.5312 62.0343 19.5213 61.6101 19.5011L61.5149 21.4989ZM62.7812 21.5312C63.1148 21.5312 63.4968 21.5202 63.9249 21.4988L63.8251 19.5012C63.4199 19.5215 63.0727 19.5312 62.7812 19.5312V21.5312ZM63.9249 21.4988C64.3459 21.4777 64.9117 21.4463 65.6212 21.4045L65.5038 19.408C64.7967 19.4496 64.2375 19.4806 63.8251 19.5012L63.9249 21.4988ZM65.6195 21.4046C66.3503 21.3629 67.05 21.3211 67.7186 21.2793L67.5939 19.2832C66.9291 19.3247 66.233 19.3663 65.5055 19.4079L65.6195 21.4046ZM67.34 21.2299C67.347 21.2322 67.4807 21.2744 67.6472 21.6527L69.4778 20.8473C69.1859 20.1839 68.7155 19.5803 67.9725 19.3326L67.34 21.2299ZM67.5702 21.126C67.5533 21.2611 67.5163 21.4866 67.4546 21.8157L69.4204 22.1843C69.4837 21.8467 69.53 21.5722 69.5548 21.374L67.5702 21.126ZM67.4463 21.8678C67.4021 22.1989 67.359 22.5992 67.3166 23.0657L69.3084 23.2468C69.3493 22.7967 69.3895 22.4261 69.4287 22.1322L67.4463 21.8678ZM67.3136 23.1087C67.2918 23.5675 67.2812 24.1262 67.2812 24.7812H69.2812C69.2812 24.1446 69.2916 23.62 69.3114 23.2038L67.3136 23.1087ZM67.2813 24.777L67.2188 39.6208L69.2187 39.6292L69.2812 24.7855L67.2813 24.777ZM67.2188 39.625C67.2188 41.5683 67.5071 43.1929 68.2149 44.3617C68.9717 45.6114 70.1551 46.25 71.625 46.25V44.25C70.824 44.25 70.3044 43.9511 69.9257 43.3258C69.4981 42.6196 69.2188 41.4317 69.2188 39.625H67.2188ZM71.625 46.25C72.8813 46.25 74.306 45.8411 75.8658 45.1182C77.436 44.3906 79.2075 43.3143 81.1754 41.9072L80.0121 40.2803C78.105 41.644 76.4443 42.6459 75.0249 43.3036C73.595 43.9662 72.4729 44.25 71.625 44.25V46.25ZM81.5938 41.0938C81.5938 34.8761 81.4999 29.4247 81.3117 24.7411L79.3133 24.8214C79.5001 29.4712 79.5938 34.8947 79.5938 41.0938H81.5938ZM81.3125 24.7812C81.3125 24.2743 81.2132 23.784 80.9882 23.334L79.1993 24.2285C79.266 24.3618 79.3125 24.5382 79.3125 24.7812H81.3125ZM80.9882 23.334C80.7534 22.8644 80.396 22.4892 79.961 22.1992L78.8515 23.8633C79.0415 23.9899 79.1425 24.1147 79.1993 24.2285L80.9882 23.334ZM79.9875 22.2175C79.6645 21.9868 79.3486 21.7906 79.041 21.6368L78.1465 23.4257C78.3389 23.5219 78.5646 23.659 78.825 23.845L79.9875 22.2175ZM79.1306 21.6876C78.7589 21.451 78.285 21.295 77.7841 21.1811L77.3409 23.1314C77.7567 23.2259 77.9703 23.3198 78.0569 23.3749L79.1306 21.6876ZM77.8256 21.1915C77.37 21.0672 76.9783 20.9741 76.7042 20.9436L76.4833 22.9314C76.5842 22.9426 76.8384 22.9953 77.2994 23.121L77.8256 21.1915ZM76.8107 20.9613C76.607 20.916 76.2813 20.8511 75.8434 20.7677L75.4691 22.7323C75.9062 22.8156 76.2055 22.8756 76.3768 22.9137L76.8107 20.9613ZM76.6264 21.5075C76.5891 21.3582 76.5641 21.2395 76.5489 21.1481C76.5413 21.1028 76.5367 21.0675 76.5341 21.0411C76.5328 21.0281 76.5321 21.0181 76.5317 21.0109C76.5315 21.0074 76.5314 21.0047 76.5313 21.0028C76.5313 21.0019 76.5313 21.0012 76.5313 21.0007C76.5313 21.0005 76.5313 21.0003 76.5313 21.0002C76.5313 21.0001 76.5313 21.0001 76.5313 21C76.5313 21 76.5313 21 76.5313 21C76.5312 20.9999 76.5313 21.0001 76.5313 21C76.5312 20.9999 76.5312 21.0001 76.5312 21H74.5312C74.5312 21.2958 74.5992 21.6451 74.6861 21.9925L76.6264 21.5075ZM76.5312 21C76.5312 21.0098 76.5311 20.9775 76.5477 20.8823C76.5631 20.7939 76.5884 20.6757 76.6264 20.5238L74.6861 20.0387C74.6024 20.3735 74.5312 20.7191 74.5312 21H76.5312ZM75.5992 21.2796C76.3289 21.3213 77.069 21.363 77.8195 21.4047L77.9305 19.4078C77.181 19.3662 76.4419 19.3245 75.7133 19.2829L75.5992 21.2796ZM77.821 21.4048C78.5927 21.4465 79.1993 21.4779 79.6399 21.4989L79.7351 19.5011C79.3007 19.4804 78.699 19.4493 77.929 19.4077L77.821 21.4048ZM79.6399 21.4989C80.0907 21.5203 80.513 21.5312 80.9062 21.5312V19.5312C80.5495 19.5312 80.1593 19.5213 79.7351 19.5011L79.6399 21.4989ZM80.9062 21.5312C81.2398 21.5312 81.6218 21.5202 82.0499 21.4988L81.9501 19.5012C81.5449 19.5215 81.1977 19.5312 80.9062 19.5312V21.5312ZM82.0499 21.4988C82.4709 21.4777 83.0367 21.4463 83.7462 21.4045L83.6288 19.408C82.9217 19.4496 82.3625 19.4806 81.9501 19.5012L82.0499 21.4988ZM83.7445 21.4046C84.4753 21.3629 85.175 21.3211 85.8436 21.2793L85.7189 19.2832C85.0541 19.3247 84.358 19.3663 83.6305 19.4079L83.7445 21.4046ZM85.2668 21.1387C85.2941 21.1551 85.3118 21.1674 85.3219 21.175C85.3322 21.1827 85.3316 21.1833 85.3241 21.1759L86.7384 19.7616C86.6011 19.6243 86.4459 19.5139 86.2957 19.4238L85.2668 21.1387ZM85.584 21.3632C85.5348 21.3386 85.4823 21.3028 85.4335 21.254C85.3847 21.2052 85.3489 21.1527 85.3243 21.1035L87.1132 20.209C86.9747 19.9322 86.7553 19.7128 86.4785 19.5743L85.584 21.3632ZM85.5116 21.3634C85.5246 21.3763 85.5242 21.3772 85.516 21.3669C85.5115 21.3613 85.503 21.3502 85.4922 21.334C85.4816 21.3181 85.466 21.2931 85.4493 21.2597L87.2382 20.3653C87.1436 20.1762 87.009 20.0323 86.9259 19.9491L85.5116 21.3634ZM85.6366 21.5196C85.5838 21.4668 85.5487 21.4192 85.5299 21.392C85.5095 21.3626 85.4954 21.3383 85.4872 21.3235C85.4786 21.308 85.4727 21.2961 85.4694 21.2894C85.4661 21.2824 85.4642 21.2779 85.4637 21.2767C85.4636 21.2766 85.4718 21.2966 85.4888 21.3475L87.3862 20.715C87.3615 20.6409 87.3333 20.5619 87.302 20.4889C87.2864 20.4527 87.2643 20.4042 87.2355 20.3522C87.2143 20.3142 87.1549 20.2094 87.0509 20.1054L85.6366 21.5196ZM85.509 21.4026C85.5507 21.5069 85.5955 21.6145 85.6368 21.6972L87.4257 20.8028C87.428 20.8074 87.4238 20.7992 87.4113 20.7701C87.3999 20.7435 87.3849 20.7072 87.366 20.6599L85.509 21.4026ZM85.542 21.1035C85.3676 22.2807 85.2812 23.5069 85.2812 24.7812H87.2812C87.2812 23.5972 87.3615 22.4693 87.5205 21.3965L85.542 21.1035ZM85.2821 24.7405C85.1568 27.8096 85.0938 30.3142 85.0938 32.25H87.0938C87.0938 30.3525 87.1557 27.8779 87.2804 24.822L85.2821 24.7405ZM85.0938 32.25C85.0938 33.2597 85.1147 34.9446 85.1564 37.2989L87.1561 37.2636C87.1144 34.9096 87.0938 33.2403 87.0938 32.25H85.0938ZM85.1564 37.2989C85.198 39.649 85.2188 41.7054 85.2188 43.4688H87.2188C87.2188 41.6905 87.1978 39.6218 87.1561 37.2636L85.1564 37.2989ZM85.7177 44.3342C87.1202 45.1461 89.3222 45.5801 92.1596 45.7482L92.2779 43.7518C89.4903 43.5866 87.6923 43.1664 86.7198 42.6033L85.7177 44.3342ZM91.2382 44.9461C91.2901 45.2059 91.3286 45.4009 91.3539 45.5326C91.3667 45.599 91.3755 45.6459 91.3808 45.6758C91.3836 45.6913 91.3846 45.6975 91.3845 45.6973C91.3845 45.6969 91.3842 45.6953 91.3839 45.6928C91.3835 45.6904 91.3829 45.6859 91.3821 45.6797C91.3814 45.6742 91.3801 45.6631 91.3788 45.6487C91.3779 45.6388 91.375 45.6056 91.375 45.5625H93.375C93.375 45.4916 93.3668 45.4327 93.3667 45.4316C93.3645 45.4141 93.3621 45.3986 93.3606 45.3886C93.3573 45.3676 93.3534 45.3451 93.3497 45.3242C93.342 45.2812 93.3312 45.2239 93.3179 45.1549C93.2912 45.0158 93.2515 44.8149 93.1993 44.5539L91.2382 44.9461ZM91.375 45.5625C91.375 45.5285 91.3782 45.513 91.3765 45.524C91.3752 45.5329 91.3715 45.5537 91.3631 45.5887C91.3462 45.6598 91.3167 45.7626 91.2701 45.9025L93.1674 46.535C93.2675 46.2348 93.375 45.8712 93.375 45.5625H91.375ZM92.1239 45.2233C88.1003 45.6065 84.4758 46.4818 81.2616 47.8624L82.0509 49.7001C85.045 48.414 88.4622 47.581 92.3136 47.2142L92.1239 45.2233ZM82.0459 47.8603C81.6035 47.6731 81.5018 47.5176 81.4882 47.4903L79.6993 48.3847C80.019 49.0241 80.6256 49.431 81.2666 49.7022L82.0459 47.8603ZM81.5938 47.9375V43.0625H79.5938V47.9375H81.5938ZM79.9417 42.3043C77.8936 44.0657 75.9765 45.4525 74.1903 46.4761L75.1847 48.2114C77.1068 47.11 79.1273 45.6426 81.2458 43.8207L79.9417 42.3043ZM74.1935 46.4743C72.4916 47.4413 70.8061 47.9062 69.125 47.9062V49.9062C71.1939 49.9062 73.2167 49.3296 75.1815 48.2132L74.1935 46.4743ZM69.125 47.9062C66.9232 47.9062 65.6024 47.2928 64.8625 46.3062L63.2625 47.5062C64.5226 49.1864 66.5768 49.9062 69.125 49.9062V47.9062ZM64.8685 46.3143C64.0733 45.2316 63.5717 43.3911 63.5311 40.6104L61.5314 40.6396C61.5741 43.5672 62.0933 45.9143 63.2565 47.4982L64.8685 46.3143ZM63.5311 40.6092L63.2811 24.7655L61.2814 24.797L61.5314 40.6408L63.5311 40.6092ZM63.2775 24.6946C63.2311 24.1611 63.1189 23.6144 62.8437 23.1819L61.1563 24.2556C61.1563 24.2556 61.1581 24.2585 61.1614 24.2649C61.1647 24.2713 61.1692 24.2808 61.1746 24.294C61.1856 24.3207 61.199 24.3592 61.213 24.4121C61.2415 24.5197 61.2677 24.6689 61.285 24.8679L63.2775 24.6946ZM62.8944 23.2715C62.6694 22.8214 62.3078 22.4721 61.8985 22.1992L60.789 23.8633C61.0047 24.0071 61.0806 24.1161 61.1056 24.166L62.8944 23.2715ZM61.925 22.2175C61.602 21.9868 61.2861 21.7906 60.9785 21.6368L60.084 23.4257C60.2764 23.5219 60.5021 23.659 60.7625 23.845L61.925 22.2175ZM61.0351 21.6675C60.6598 21.4485 60.1942 21.2956 59.6904 21.1811L59.2471 23.1314C59.6599 23.2252 59.9027 23.3223 60.0274 23.395L61.0351 21.6675ZM59.7319 21.1915C59.2762 21.0672 58.8846 20.9741 58.6104 20.9436L58.3896 22.9314C58.4904 22.9426 58.7446 22.9953 59.2056 23.121L59.7319 21.1915ZM58.7169 20.9613C58.5085 20.915 58.1684 20.8495 57.7101 20.7661L57.3524 22.7339C57.8108 22.8172 58.1165 22.8767 58.2831 22.9137L58.7169 20.9613ZM58.5014 21.5075C58.4641 21.3582 58.4391 21.2395 58.4239 21.1481C58.408 21.0525 58.4062 21.0077 58.4062 21H56.4062C56.4062 21.2958 56.4742 21.6451 56.5611 21.9925L58.5014 21.5075ZM58.4062 21C58.4062 21.0098 58.4061 20.9775 58.4227 20.8823C58.4381 20.7939 58.4634 20.6757 58.5014 20.5238L56.5611 20.0387C56.4774 20.3735 56.4062 20.7191 56.4062 21H58.4062ZM97 22.2812L96.8975 21.2865L96.1999 21.3584L96.0299 22.0387L97 22.2812ZM107.562 19.7188L107.934 18.7903L107.548 18.6361L107.167 18.8003L107.562 19.7188ZM108.656 20.5312H109.656V20.2445L109.504 20.0013L108.656 20.5312ZM108.906 43.7188L107.907 43.7546L107.907 43.7572L108.906 43.7188ZM109.375 45.125L108.57 45.7182L108.588 45.7422L108.607 45.7652L109.375 45.125ZM110.688 46L110.34 46.9377L110.688 46ZM112.094 46.4688L111.826 47.4323L111.851 47.4393L111.877 47.4449L112.094 46.4688ZM113.562 46.7188L114.457 46.2715L114.221 45.8001L113.699 45.7281L113.562 46.7188ZM113.562 48.1875L113.517 49.1865L114.081 49.2121L114.395 48.7422L113.562 48.1875ZM97.625 48.1875L96.6549 48.43L96.8533 49.2236L97.6704 49.1865L97.625 48.1875ZM97.625 46.7188L97.5047 45.726L96.7863 45.8131L96.6444 46.5226L97.625 46.7188ZM99.3125 46.4688L99.4996 47.4511L99.522 47.4468L99.5441 47.4416L99.3125 46.4688ZM102.406 45.125L103.154 45.7894L103.163 45.7794L103.171 45.7691L102.406 45.125ZM102.938 43.7188L101.938 43.6784L101.938 43.6803L102.938 43.7188ZM103 25.0312H104V24.4718L103.523 24.1791L103 25.0312ZM97 23.75L96.0299 23.9925L96.2107 24.7159L96.9556 24.749L97 23.75ZM103.031 6.5L102.334 5.78321L102.324 5.79289L103.031 6.5ZM108.469 11.9375L109.176 12.6447L109.185 12.6349L108.469 11.9375ZM103.031 11.9375L102.315 12.6349L102.324 12.6447L102.334 12.6542L103.031 11.9375ZM97.1025 23.276C101.222 22.8513 104.845 21.9774 107.958 20.6372L107.167 18.8003C104.28 20.0434 100.862 20.8778 96.8975 21.2865L97.1025 23.276ZM107.191 20.6472C107.596 20.8092 107.751 20.9703 107.808 21.0612L109.504 20.0013C109.144 19.4256 108.571 19.0449 107.934 18.7903L107.191 20.6472ZM107.656 20.5312C107.656 31.3443 107.74 39.0892 107.907 43.7546L109.906 43.6829C109.74 39.0566 109.656 31.3432 109.656 20.5312H107.656ZM107.907 43.7572C107.935 44.4777 108.147 45.1447 108.57 45.7182L110.18 44.5318C110.019 44.3137 109.919 44.0432 109.906 43.6803L107.907 43.7572ZM108.607 45.7652C109.054 46.302 109.651 46.6825 110.34 46.9377L111.035 45.0623C110.599 44.9008 110.321 44.698 110.143 44.4848L108.607 45.7652ZM110.34 46.9377C110.917 47.1512 111.414 47.3178 111.826 47.4323L112.361 45.5052C112.024 45.4114 111.583 45.2655 111.035 45.0623L110.34 46.9377ZM111.877 47.4449C112.289 47.5366 112.808 47.6242 113.426 47.7094L113.699 45.7281C113.108 45.6466 112.648 45.5676 112.311 45.4926L111.877 47.4449ZM112.668 47.166C112.726 47.2817 112.75 47.3895 112.75 47.5H114.75C114.75 47.0689 114.649 46.6558 114.457 46.2715L112.668 47.166ZM112.75 47.5C112.75 47.5587 112.743 47.5941 112.738 47.6119C112.736 47.6208 112.734 47.6261 112.733 47.6287C112.731 47.6312 112.731 47.6324 112.73 47.6328L114.395 48.7422C114.65 48.3597 114.75 47.9278 114.75 47.5H112.75ZM113.608 47.1885C110.844 47.0629 108.162 47 105.562 47V49C108.13 49 110.781 49.0621 113.517 49.1865L113.608 47.1885ZM105.562 47C103.005 47 100.343 47.0629 97.5796 47.1885L97.6704 49.1865C100.407 49.0621 103.037 49 105.562 49V47ZM98.5951 47.945C98.5565 47.7905 98.5307 47.6725 98.5151 47.5867C98.4975 47.49 98.5 47.4716 98.5 47.5H96.5C96.5 47.7658 96.5747 48.1095 96.6549 48.43L98.5951 47.945ZM98.5 47.5C98.5 47.53 98.4977 47.5377 98.5013 47.5061C98.5043 47.4803 98.5097 47.4407 98.5187 47.3846C98.5366 47.2724 98.5651 47.1172 98.6056 46.9149L96.6444 46.5226C96.6015 46.737 96.5675 46.9203 96.5438 47.0686C96.5235 47.1957 96.5 47.3589 96.5 47.5H98.5ZM97.7453 47.7115C98.4444 47.6267 99.0314 47.5403 99.4996 47.4511L99.1254 45.4864C98.7186 45.5639 98.1806 45.6441 97.5047 45.726L97.7453 47.7115ZM99.5441 47.4416C100.016 47.3291 100.585 47.1645 101.245 46.9517L100.63 45.0483C99.9984 45.2522 99.4837 45.4 99.0809 45.4959L99.5441 47.4416ZM101.245 46.9517C102.002 46.7072 102.667 46.3367 103.154 45.7894L101.659 44.4606C101.479 44.6633 101.164 44.8761 100.63 45.0483L101.245 46.9517ZM103.171 45.7691C103.655 45.1946 103.908 44.5099 103.937 43.7572L101.938 43.6803C101.926 44.011 101.824 44.2637 101.641 44.4809L103.171 45.7691ZM103.937 43.7591C104.021 41.6789 104.062 39.1646 104.062 36.2188H102.062C102.062 39.1479 102.021 41.6336 101.938 43.6784L103.937 43.7591ZM104.062 36.2188C104.062 35.2347 104.052 33.5641 104.031 31.2099L102.031 31.2276C102.052 33.5818 102.062 35.2445 102.062 36.2188H104.062ZM104.031 31.2099C104.01 28.8578 104 26.7984 104 25.0312H102C102 26.8058 102.01 28.8714 102.031 31.2276L104.031 31.2099ZM103.523 24.1791C102.106 23.309 99.8864 22.8773 97.0444 22.751L96.9556 24.749C99.7386 24.8727 101.519 25.2952 102.477 25.8834L103.523 24.1791ZM97.9701 23.5075C97.8931 23.1994 97.875 23.033 97.875 22.9688H95.875C95.875 23.2795 95.9402 23.6339 96.0299 23.9925L97.9701 23.5075ZM97.875 22.9688C97.875 22.9971 97.8725 22.9788 97.8901 22.882C97.9057 22.7962 97.9315 22.6783 97.9701 22.5238L96.0299 22.0387C95.9497 22.3592 95.875 22.7029 95.875 22.9688H97.875ZM102.906 9.21875C102.906 8.42095 103.176 7.7692 103.738 7.20711L102.324 5.79289C101.386 6.7308 100.906 7.89155 100.906 9.21875H102.906ZM103.729 7.21673C104.319 6.6418 104.978 6.375 105.75 6.375V4.375C104.439 4.375 103.285 4.8582 102.334 5.78327L103.729 7.21673ZM105.75 6.375C106.548 6.375 107.2 6.64501 107.762 7.20711L109.176 5.79289C108.238 4.85499 107.077 4.375 105.75 4.375V6.375ZM107.762 7.20711C108.324 7.7692 108.594 8.42095 108.594 9.21875H110.594C110.594 7.89155 110.114 6.7308 109.176 5.79289L107.762 7.20711ZM108.594 9.21875C108.594 9.99068 108.327 10.6493 107.752 11.2401L109.185 12.6349C110.111 11.6841 110.594 10.5302 110.594 9.21875H108.594ZM107.762 11.2304C107.2 11.7925 106.548 12.0625 105.75 12.0625V14.0625C107.077 14.0625 108.238 13.5825 109.176 12.6446L107.762 11.2304ZM105.75 12.0625C104.978 12.0625 104.319 11.7957 103.729 11.2208L102.334 12.6542C103.285 13.5793 104.439 14.0625 105.75 14.0625V12.0625ZM103.748 11.2401C103.173 10.6493 102.906 9.99068 102.906 9.21875H100.906C100.906 10.5302 101.389 11.6841 102.315 12.6349L103.748 11.2401ZM143.281 39.875L143.485 38.896L142.881 38.7702L142.498 39.2536L143.281 39.875ZM144.5 40.5625L145.437 40.9121L145.646 40.3504L145.25 39.9009L144.5 40.5625ZM139.656 46.8438L140.188 47.6904L140.194 47.6867L139.656 46.8438ZM128.812 48.4062L129.078 47.4423L129.071 47.4401L129.063 47.4381L128.812 48.4062ZM125.281 46.8438L124.737 47.6829L124.744 47.6874L125.281 46.8438ZM122.312 44.1562L121.52 44.766L121.526 44.7745L121.533 44.7828L122.312 44.1562ZM120.281 40.125L119.325 40.4191L119.328 40.4265L119.33 40.4338L120.281 40.125ZM141.188 21.5L140.618 22.3219L140.629 22.3292L141.188 21.5ZM137.469 29.1875L136.773 29.9054L136.778 29.9109L136.784 29.9163L137.469 29.1875ZM138.844 23.875L139.095 24.8429L140.104 24.5809L139.8 23.5838L138.844 23.875ZM137.438 22.4062L136.888 23.2417L136.896 23.2468L136.904 23.2517L137.438 22.4062ZM131.938 21.9062L132.18 22.8764L132.194 22.8729L132.208 22.8689L131.938 21.9062ZM129.781 23L129.192 22.1921L129.181 22.2L129.781 23ZM127.844 25.2188L126.983 24.71L126.978 24.7173L126.974 24.7247L127.844 25.2188ZM126.531 29.0625L127.508 29.2755L127.509 29.2729L126.531 29.0625ZM126.438 38.7188L125.466 38.9573L125.468 38.9653L125.47 38.9732L126.438 38.7188ZM130.531 44.1875L130.097 45.0885L130.531 44.1875ZM137.219 44.625L137.5 45.5847L137.51 45.5816L137.521 45.5782L137.219 44.625ZM139.281 43.7812L138.807 42.9008L138.8 42.9047L138.793 42.9087L139.281 43.7812ZM141 42.4688L141.695 43.1882L141.695 43.1877L141 42.4688ZM142.25 41.1875L143.018 41.8277L143.031 41.8127L143.043 41.7972L142.25 41.1875ZM143.077 40.854C143.384 40.9179 143.592 41.0454 143.75 41.2241L145.25 39.9009C144.783 39.3713 144.178 39.0404 143.485 38.896L143.077 40.854ZM143.563 40.2129C142.586 42.8326 141.096 44.7386 139.118 46.0008L140.194 47.6867C142.591 46.1573 144.331 43.8757 145.437 40.9121L143.563 40.2129ZM139.124 45.9971C137.095 47.2728 134.904 47.9062 132.531 47.9062V49.9062C135.284 49.9062 137.843 49.1647 140.188 47.6904L139.124 45.9971ZM132.531 47.9062C131.349 47.9062 130.199 47.7514 129.078 47.4423L128.547 49.3702C129.843 49.7278 131.172 49.9062 132.531 49.9062V47.9062ZM129.063 47.4381C127.965 47.154 126.883 46.678 125.818 46.0001L124.744 47.6874C125.971 48.4679 127.244 49.0335 128.562 49.3744L129.063 47.4381ZM125.825 46.0046C124.791 45.3343 123.881 44.5107 123.092 43.5297L121.533 44.7828C122.453 45.9268 123.522 46.8949 124.737 47.6829L125.825 46.0046ZM123.105 43.5465C122.356 42.5721 121.726 41.3362 121.232 39.8162L119.33 40.4338C119.878 42.1221 120.603 43.5737 121.52 44.766L123.105 43.5465ZM121.237 39.8309C120.77 38.3144 120.531 36.6235 120.531 34.75H118.531C118.531 36.7932 118.792 38.6856 119.325 40.4191L121.237 39.8309ZM120.531 34.75C120.531 30.4504 121.84 27.0618 124.397 24.4857L122.978 23.0768C119.993 26.0841 118.531 30.008 118.531 34.75H120.531ZM124.397 24.4857C126.969 21.8943 130.167 20.5938 134.062 20.5938V18.5938C129.666 18.5938 125.947 20.0849 122.978 23.0768L124.397 24.4857ZM134.062 20.5938C136.838 20.5938 138.996 21.1979 140.618 22.3219L141.757 20.6781C139.712 19.2604 137.121 18.5938 134.062 18.5938V20.5938ZM140.629 22.3292C142.253 23.424 142.969 24.7381 142.969 26.3125H144.969C144.969 23.9702 143.831 22.076 141.746 20.6708L140.629 22.3292ZM142.969 26.3125C142.969 27.1722 142.695 27.828 142.168 28.3554L143.582 29.7696C144.513 28.8387 144.969 27.6611 144.969 26.3125H142.969ZM142.168 28.3554C141.633 28.8908 140.994 29.1562 140.188 29.1562V31.1562C141.506 31.1562 142.659 30.6926 143.582 29.7696L142.168 28.3554ZM140.188 29.1562C139.265 29.1562 138.621 28.8977 138.153 28.4587L136.784 29.9163C137.692 30.769 138.86 31.1562 140.188 31.1562V29.1562ZM138.165 28.4696C137.651 27.9716 137.438 27.4524 137.438 26.875H135.438C135.438 28.0476 135.911 29.0701 136.773 29.9054L138.165 28.4696ZM137.438 26.875C137.438 26.2559 137.591 25.8471 137.819 25.5632C138.051 25.2746 138.44 25.013 139.095 24.8429L138.592 22.9071C137.643 23.1537 136.83 23.6004 136.259 24.3118C135.685 25.0279 135.438 25.9108 135.438 26.875H137.438ZM139.8 23.5838C139.545 22.7458 138.811 22.091 137.971 21.5608L136.904 23.2517C137.647 23.7215 137.85 24.0459 137.887 24.1662L139.8 23.5838ZM137.987 21.5708C136.966 20.8993 135.619 20.625 134.062 20.625V22.625C135.423 22.625 136.325 22.8716 136.888 23.2417L137.987 21.5708ZM134.062 20.625C133.229 20.625 132.429 20.7294 131.667 20.9436L132.208 22.8689C132.78 22.7081 133.396 22.625 134.062 22.625V20.625ZM131.695 20.9361C130.865 21.1436 130.029 21.5812 129.192 22.1922L130.371 23.8078C131.075 23.2938 131.677 23.0022 132.18 22.8764L131.695 20.9361ZM129.181 22.2C128.313 22.8515 127.582 23.6953 126.983 24.71L128.705 25.7275C129.188 24.9088 129.75 24.2735 130.381 23.8L129.181 22.2ZM126.974 24.7247C126.382 25.7665 125.918 27.1586 125.554 28.8521L127.509 29.2729C127.853 27.6747 128.263 26.5043 128.713 25.7128L126.974 24.7247ZM125.554 28.8496C125.181 30.5618 125 32.532 125 34.75H127C127 32.6347 127.173 30.8132 127.508 29.2754L125.554 28.8496ZM125 34.75C125 36.2738 125.152 37.6785 125.466 38.9573L127.409 38.4802C127.139 37.384 127 36.1429 127 34.75H125ZM125.47 38.9732C125.81 40.2624 126.333 41.4393 127.046 42.4964L128.704 41.3786C128.125 40.519 127.69 39.5501 127.405 38.4643L125.47 38.9732ZM127.046 42.4964C127.799 43.6136 128.826 44.4763 130.097 45.0885L130.965 43.2865C129.987 42.8154 129.243 42.1781 128.704 41.3786L127.046 42.4964ZM130.097 45.0885C131.384 45.708 132.861 46 134.5 46V44C133.097 44 131.928 43.7504 130.965 43.2865L130.097 45.0885ZM134.5 46C135.546 46 136.548 45.8634 137.5 45.5847L136.938 43.6653C136.182 43.8866 135.371 44 134.5 44V46ZM137.521 45.5782C138.411 45.296 139.168 44.9906 139.77 44.6538L138.793 42.9087C138.353 43.1552 137.735 43.4123 136.917 43.6718L137.521 45.5782ZM139.755 44.6617C140.401 44.3142 141.047 43.8136 141.695 43.1882L140.305 41.7493C139.745 42.2906 139.245 42.665 138.807 42.9008L139.755 44.6617ZM141.695 43.1877C142.317 42.5866 142.771 42.1247 143.018 41.8277L141.482 40.5473C141.313 40.7503 140.933 41.1426 140.305 41.7498L141.695 43.1877ZM143.043 41.7972C143.246 41.5327 143.586 41.1003 144.065 40.4964L142.498 39.2536C142.018 39.8581 141.671 40.3006 141.457 40.5778L143.043 41.7972ZM168.188 46.7188L168.086 45.7239L167.388 45.7953L167.217 46.4762L168.188 46.7188ZM170.25 43.7188L169.461 44.3338L169.468 44.3422L169.475 44.3504L170.25 43.7188ZM161.719 32.7812L162.507 32.1662L162.207 31.7812H161.719V32.7812ZM160.188 32.7812V31.7812H159.188V32.7812H160.188ZM160.375 43.7188H161.375V43.6917L161.374 43.6648L160.375 43.7188ZM160.781 45.125L159.956 45.6897L159.973 45.7149L159.992 45.7389L160.781 45.125ZM162.031 46L161.672 46.9334L161.684 46.9377L162.031 46ZM163.406 46.4688L163.124 47.4281L163.156 47.4376L163.189 47.4449L163.406 46.4688ZM164.875 46.7188L165.769 46.2715L165.534 45.8001L165.012 45.7281L164.875 46.7188ZM164.875 48.1875L164.83 49.1865L165.394 49.2121L165.707 48.7422L164.875 48.1875ZM149.125 48.1875L148.155 48.43L148.353 49.2236L149.17 49.1865L149.125 48.1875ZM149.125 46.7188L149.005 45.726L148.286 45.8131L148.144 46.5226L149.125 46.7188ZM150.781 46.4688L150.977 47.4493L150.995 47.4458L151.013 47.4416L150.781 46.4688ZM152.406 46L152.108 45.0455L152.099 45.0483L152.406 46ZM153.906 45.125L154.654 45.7894L154.663 45.7794L154.671 45.7691L153.906 45.125ZM154.438 43.7188L153.438 43.6784L153.438 43.6803L154.438 43.7188ZM154.531 24.2188L153.531 24.2207L153.531 24.2207L154.531 24.2188ZM154.5 5.8125H155.5V5.23595L155.001 4.94707L154.5 5.8125ZM148.5 4.53125L147.567 4.89023L147.798 5.4914L148.441 5.5295L148.5 4.53125ZM148.5 3.0625L148.406 2.06696L147.789 2.12538L147.567 2.70352L148.5 3.0625ZM159.031 0.5L159.409 -0.426092L159.018 -0.585055L158.632 -0.416872L159.031 0.5ZM160.125 1.34375L161.125 1.34163L161.124 1.10668L161.019 0.896536L160.125 1.34375ZM160.188 30.7812L159.188 30.7834L159.19 31.7812H160.188V30.7812ZM161.812 30.7812V31.7812H162.212L162.501 31.5061L161.812 30.7812ZM168.125 24.7812L168.814 25.5061L168.85 25.4721L168.882 25.4349L168.125 24.7812ZM165.75 21.75L164.78 21.9925L164.95 22.6713L165.645 22.7445L165.75 21.75ZM165.75 20.2812L165.796 19.2823L164.978 19.2446L164.78 20.0387L165.75 20.2812ZM178.875 20.2812L179.824 19.965L179.584 19.2472L178.829 19.2823L178.875 20.2812ZM178.875 21.75L178.987 22.7437L179.712 22.6622L179.856 21.9461L178.875 21.75ZM174.281 22.6875L174.593 23.6378L174.6 23.6354L174.607 23.6329L174.281 22.6875ZM171 24.7812L171.712 25.4839L171.715 25.4809L171 24.7812ZM166.031 29.8125L165.32 29.1098L164.698 29.7392L165.247 30.4329L166.031 29.8125ZM177.031 43.7188L177.824 43.109L177.816 43.0984L177.031 43.7188ZM182.656 46.7188L183.637 46.5226L183.499 45.834L182.805 45.7298L182.656 46.7188ZM182.656 48.1875L182.61 49.1864L183.366 49.2216L183.605 48.5037L182.656 48.1875ZM168.188 48.1875L167.217 48.43L167.416 49.2245L168.234 49.1864L168.188 48.1875ZM168.289 47.7136C169.251 47.6152 170.092 47.4292 170.721 47.093C171.387 46.7375 171.938 46.1321 171.938 45.25H169.938C169.938 45.251 169.938 45.242 169.942 45.2279C169.944 45.2215 169.947 45.2159 169.949 45.2115C169.951 45.207 169.953 45.205 169.952 45.2052C169.951 45.207 169.914 45.2567 169.779 45.3289C169.492 45.4822 168.958 45.6348 168.086 45.7239L168.289 47.7136ZM171.938 45.25C171.938 44.461 171.549 43.7303 171.025 43.0871L169.475 44.3504C169.867 44.8322 169.938 45.1224 169.938 45.25H171.938ZM171.039 43.1037L162.507 32.1662L160.93 33.3963L169.461 44.3338L171.039 43.1037ZM161.719 31.7812H160.188V33.7812H161.719V31.7812ZM159.188 32.7812C159.188 37.7629 159.25 41.4315 159.376 43.7727L161.374 43.6648C161.25 41.381 161.188 37.758 161.188 32.7812H159.188ZM159.375 43.7188C159.375 44.4349 159.557 45.1065 159.956 45.6897L161.607 44.5603C161.464 44.3518 161.375 44.0859 161.375 43.7188H159.375ZM159.992 45.7389C160.418 46.2864 160.998 46.6742 161.672 46.9333L162.39 45.0667C161.981 44.9092 161.728 44.7136 161.571 44.5111L159.992 45.7389ZM161.684 46.9377C162.256 47.1498 162.739 47.3148 163.124 47.4281L163.688 45.5094C163.365 45.4144 162.931 45.2669 162.379 45.0623L161.684 46.9377ZM163.189 47.4449C163.602 47.5366 164.121 47.6242 164.738 47.7094L165.012 45.7281C164.421 45.6466 163.961 45.5676 163.623 45.4926L163.189 47.4449ZM163.981 47.166C164.038 47.2817 164.062 47.3895 164.062 47.5H166.062C166.062 47.0689 165.962 46.6558 165.769 46.2715L163.981 47.166ZM164.062 47.5C164.062 47.5587 164.056 47.5941 164.051 47.6119C164.048 47.6208 164.046 47.6261 164.045 47.6287C164.044 47.6312 164.043 47.6324 164.043 47.6328L165.707 48.7422C165.962 48.3597 166.062 47.9278 166.062 47.5H164.062ZM164.92 47.1885C162.157 47.0629 159.538 47 157.062 47V49C159.504 49 162.093 49.0621 164.83 49.1865L164.92 47.1885ZM157.062 47C154.505 47 151.843 47.0629 149.08 47.1885L149.17 49.1865C151.907 49.0621 154.537 49 157.062 49V47ZM150.095 47.945C150.057 47.7905 150.031 47.6725 150.015 47.5867C149.998 47.49 150 47.4716 150 47.5H148C148 47.7658 148.075 48.1095 148.155 48.43L150.095 47.945ZM150 47.5C150 47.53 149.998 47.5377 150.001 47.5061C150.004 47.4803 150.01 47.4407 150.019 47.3846C150.037 47.2724 150.065 47.1172 150.106 46.9149L148.144 46.5226C148.102 46.737 148.068 46.9203 148.044 47.0686C148.023 47.1957 148 47.3589 148 47.5H150ZM149.245 47.7115C149.945 47.6267 150.525 47.5398 150.977 47.4493L150.585 45.4882C150.204 45.5644 149.68 45.6441 149.005 45.726L149.245 47.7115ZM151.013 47.4416C151.485 47.3291 152.054 47.1645 152.713 46.9517L152.099 45.0483C151.467 45.2522 150.952 45.4 150.55 45.4959L151.013 47.4416ZM152.705 46.9545C153.48 46.7123 154.161 46.3432 154.654 45.7894L153.159 44.4606C152.984 44.6568 152.666 44.871 152.108 45.0455L152.705 46.9545ZM154.671 45.7691C155.155 45.1946 155.408 44.5099 155.437 43.7572L153.438 43.6803C153.426 44.011 153.324 44.2637 153.141 44.4809L154.671 45.7691ZM155.437 43.7591C155.521 41.6699 155.552 35.1426 155.531 24.2168L153.531 24.2207C153.552 35.1699 153.521 41.6426 153.438 43.6784L155.437 43.7591ZM155.531 24.2168C155.51 13.2578 155.5 7.12376 155.5 5.8125H153.5C153.5 7.12624 153.51 13.2631 153.531 24.2207L155.531 24.2168ZM155.001 4.94707C153.599 4.13513 151.397 3.70114 148.559 3.533L148.441 5.5295C151.228 5.69469 153.026 6.11487 153.999 6.67793L155.001 4.94707ZM149.433 4.17227C149.362 3.98677 149.344 3.85984 149.344 3.78125H147.344C147.344 4.16099 147.43 4.53406 147.567 4.89023L149.433 4.17227ZM149.344 3.78125C149.344 3.73358 149.357 3.61949 149.433 3.42148L147.567 2.70352C147.434 3.04718 147.344 3.41225 147.344 3.78125H149.344ZM148.594 4.05804C152.638 3.67492 156.255 2.79951 159.43 1.41687L158.632 -0.416872C155.683 0.867162 152.278 1.70008 148.406 2.06696L148.594 4.05804ZM158.654 1.42609C159.124 1.61773 159.223 1.7755 159.231 1.79096L161.019 0.896536C160.694 0.245331 160.063 -0.159398 159.409 -0.426092L158.654 1.42609ZM159.125 1.34587L159.188 30.7834L161.187 30.7791L161.125 1.34163L159.125 1.34587ZM160.188 31.7812H161.812V29.7812H160.188V31.7812ZM162.501 31.5061L168.814 25.5061L167.436 24.0564L161.124 30.0564L162.501 31.5061ZM168.882 25.4349C169.392 24.8443 169.719 24.1522 169.719 23.375H167.719C167.719 23.5561 167.65 23.8016 167.368 24.1276L168.882 25.4349ZM169.719 23.375C169.719 22.4636 169.164 21.8225 168.457 21.4353C167.789 21.0697 166.891 20.8646 165.855 20.7555L165.645 22.7445C166.588 22.8438 167.175 23.0136 167.496 23.1897C167.648 23.2729 167.701 23.3357 167.713 23.3539C167.718 23.3608 167.719 23.3583 167.719 23.375H169.719ZM166.72 21.5075C166.682 21.353 166.656 21.235 166.64 21.1492C166.623 21.0525 166.625 21.0341 166.625 21.0625H164.625C164.625 21.3283 164.7 21.672 164.78 21.9925L166.72 21.5075ZM166.625 21.0625C166.625 20.9982 166.643 20.8318 166.72 20.5238L164.78 20.0387C164.69 20.3973 164.625 20.7518 164.625 21.0625H166.625ZM165.704 21.2802C168.419 21.4055 170.592 21.4688 172.219 21.4688V19.4688C170.637 19.4688 168.498 19.407 165.796 19.2823L165.704 21.2802ZM172.219 21.4688C173.99 21.4688 176.226 21.4056 178.921 21.2802L178.829 19.2823C176.149 19.4069 173.947 19.4688 172.219 19.4688V21.4688ZM177.926 20.5975C177.988 20.7835 178 20.8913 178 20.9375H180C180 20.6087 179.928 20.279 179.824 19.965L177.926 20.5975ZM178 20.9375C178 20.918 178 20.9524 177.98 21.0823C177.963 21.1973 177.935 21.3532 177.894 21.5539L179.856 21.9461C179.934 21.555 180 21.1809 180 20.9375H178ZM178.763 20.7563C176.866 20.9694 175.257 21.2933 173.955 21.7421L174.607 23.6329C175.722 23.2483 177.175 22.9473 178.987 22.7437L178.763 20.7563ZM173.97 21.7372C172.594 22.1879 171.365 22.9787 170.285 24.0816L171.715 25.4809C172.593 24.5838 173.552 23.9788 174.593 23.6378L173.97 21.7372ZM170.288 24.0786L165.32 29.1098L166.743 30.5152L171.712 25.4839L170.288 24.0786ZM165.247 30.4329L176.247 44.3391L177.816 43.0984L166.816 29.1921L165.247 30.4329ZM176.239 44.3285C177.681 46.2038 179.815 47.3038 182.508 47.7077L182.805 45.7298C180.497 45.3837 178.881 44.4837 177.824 43.109L176.239 44.3285ZM181.676 46.9149C181.715 47.1139 181.743 47.2706 181.761 47.3887C181.78 47.5172 181.781 47.5652 181.781 47.5625H183.781C183.781 47.3019 183.717 46.9248 183.637 46.5226L181.676 46.9149ZM181.781 47.5625C181.781 47.5649 181.781 47.5914 181.769 47.6476C181.758 47.7029 181.739 47.7767 181.708 47.8713L183.605 48.5037C183.705 48.2038 183.781 47.8804 183.781 47.5625H181.781ZM182.703 47.1886C180.003 47.063 177.56 47 175.375 47V49C177.523 49 179.934 49.062 182.61 49.1864L182.703 47.1886ZM175.375 47C173.252 47 170.84 47.063 168.141 47.1886L168.234 49.1864C170.91 49.062 173.29 49 175.375 49V47ZM169.158 47.945C169.12 47.7957 169.095 47.677 169.08 47.5856C169.073 47.5403 169.068 47.505 169.065 47.4786C169.064 47.4656 169.063 47.4556 169.063 47.4484C169.063 47.4449 169.063 47.4422 169.063 47.4403C169.063 47.4394 169.063 47.4387 169.063 47.4382C169.063 47.438 169.063 47.4378 169.063 47.4377C169.063 47.4376 169.063 47.4376 169.063 47.4375C169.063 47.4375 169.063 47.4375 169.063 47.4375C169.062 47.4374 169.063 47.4376 169.063 47.4375C169.062 47.4374 169.062 47.4376 169.062 47.4375H167.062C167.062 47.7333 167.13 48.0826 167.217 48.43L169.158 47.945ZM169.062 47.4375C169.062 47.4473 169.062 47.415 169.079 47.3198C169.094 47.2314 169.12 47.1132 169.158 46.9613L167.217 46.4762C167.134 46.811 167.062 47.1566 167.062 47.4375H169.062ZM183.812 2.0625L183.848 1.06314L183.039 1.03423L182.842 1.81996L183.812 2.0625ZM195 2.3125V3.3125H195.016L195.032 3.31199L195 2.3125ZM215.344 3.25L215.099 4.21957L215.112 4.22269L215.344 3.25ZM220.312 5L219.87 5.897L219.881 5.90192L220.312 5ZM230.156 17.625L229.185 17.8632L229.186 17.8654L230.156 17.625ZM230.969 24.9062L231.967 24.9712L231.969 24.9387V24.9062H230.969ZM229.625 31.9688L228.678 31.647L228.675 31.6553L229.625 31.9688ZM226.875 37.5312L226.063 36.9469L226.058 36.9541L226.875 37.5312ZM218.156 44.7188L217.736 43.8111L217.732 43.8132L218.156 44.7188ZM212.781 46.625L212.531 45.6567L212.529 45.6574L212.781 46.625ZM207.156 47.6875L207.043 46.6939L207.042 46.694L207.156 47.6875ZM183.75 48.1875L182.801 48.5037L183.037 49.21L183.781 49.187L183.75 48.1875ZM183.75 46.7188L183.65 45.7237L182.914 45.7973L182.769 46.5226L183.75 46.7188ZM186.781 46.3438L186.627 45.3557L186.622 45.3565L186.781 46.3438ZM188.375 46L188.676 46.9536L188.691 46.9489L188.705 46.9439L188.375 46ZM190.625 44.7188L189.839 44.1009L189.825 44.1189L189.811 44.1375L190.625 44.7188ZM190.969 43.7188L189.969 43.6804L189.969 43.6996V43.7188H190.969ZM191.031 6.53125L190.032 6.56968L190.032 6.57376L191.031 6.53125ZM190.312 5.15625L189.659 5.91307L189.669 5.92178L189.679 5.93021L190.312 5.15625ZM188.312 4.25L188.076 5.22153L188.081 5.22281L188.312 4.25ZM186.125 3.8125L185.949 4.79693L185.969 4.80041L185.988 4.80312L186.125 3.8125ZM183.812 3.53125L182.836 3.74818L182.995 4.46397L183.726 4.52749L183.812 3.53125ZM198.344 6.53125L199.343 6.56946L199.344 6.55036V6.53125H198.344ZM198.281 45.6875L197.282 45.7115L197.304 46.6431L198.235 46.6864L198.281 45.6875ZM211.125 44.2188L211.487 45.1508L211.494 45.1482L211.125 44.2188ZM217.594 39.875L216.854 39.2019L217.594 39.875ZM221.406 33.3125L220.461 32.987L220.459 32.9916L221.406 33.3125ZM221.156 15.5938L220.21 15.9174L221.156 15.5938ZM215.469 7.65625L214.84 8.43349L214.846 8.43894L214.853 8.44427L215.469 7.65625ZM210.594 5.1875L210.293 6.14132L210.305 6.14504L210.594 5.1875ZM198.344 4.6875L198.193 3.69899L197.344 3.82881V4.6875H198.344ZM183.777 3.06186C188.449 3.22871 192.191 3.3125 195 3.3125V1.3125C192.225 1.3125 188.51 1.22962 183.848 1.06314L183.777 3.06186ZM195.032 3.31199C200.247 3.1451 203.426 3.0625 204.594 3.0625V1.0625C203.386 1.0625 200.169 1.14657 194.968 1.31301L195.032 3.31199ZM204.594 3.0625C206.503 3.0625 208.293 3.14463 209.965 3.30777L210.16 1.31723C208.415 1.14704 206.56 1.0625 204.594 1.0625V3.0625ZM209.965 3.30777C211.62 3.46916 213.33 3.77237 215.099 4.21948L215.589 2.28052C213.732 1.81096 211.922 1.48917 210.16 1.31723L209.965 3.30777ZM215.112 4.22269C216.882 4.64527 218.467 5.20508 219.87 5.89694L220.755 4.10306C219.2 3.33659 217.472 2.72973 215.576 2.27731L215.112 4.22269ZM219.881 5.90192C221.27 6.56719 222.611 7.46243 223.903 8.59561L225.222 7.09189C223.806 5.85007 222.313 4.84948 220.744 4.09808L219.881 5.90192ZM223.903 8.59561C225.176 9.71215 226.243 11.004 227.106 12.4748L228.831 11.4627C227.861 9.80849 226.657 8.35035 225.222 7.09189L223.903 8.59561ZM227.106 12.4748C227.963 13.9356 228.661 15.7261 229.185 17.8632L231.127 17.3868C230.568 15.1072 229.808 13.1269 228.831 11.4627L227.106 12.4748ZM229.186 17.8654C229.705 19.9614 229.969 22.3063 229.969 24.9062H231.969C231.969 22.1729 231.691 19.6636 231.127 17.3846L229.186 17.8654ZM229.971 24.8413C229.809 27.3278 229.376 29.5943 228.678 31.647L230.572 32.2905C231.333 30.0515 231.795 27.6097 231.967 24.9712L229.971 24.8413ZM228.675 31.6553C227.994 33.7207 227.12 35.4801 226.063 36.9469L227.687 38.1156C228.88 36.4574 229.84 34.5085 230.575 32.2822L228.675 31.6553ZM226.058 36.9541C225.008 38.4398 223.76 39.7685 222.309 40.941L223.566 42.4965C225.157 41.2107 226.533 39.7477 227.692 38.1084L226.058 36.9541ZM222.309 40.941C220.848 42.1218 219.324 43.077 217.736 43.8111L218.576 45.6264C220.322 44.8188 221.985 43.774 223.566 42.4965L222.309 40.941ZM217.732 43.8132C216.148 44.5553 214.415 45.1706 212.531 45.6567L213.031 47.5933C215.023 47.0794 216.873 46.4239 218.58 45.6243L217.732 43.8132ZM212.529 45.6574C210.655 46.1463 208.826 46.4913 207.043 46.6939L207.269 48.6811C209.153 48.4671 211.074 48.1037 213.034 47.5926L212.529 45.6574ZM207.042 46.694C205.27 46.8978 203.433 47 201.531 47V49C203.505 49 205.418 48.8939 207.27 48.681L207.042 46.694ZM201.531 47C193.716 47 187.777 47.0625 183.719 47.188L183.781 49.187C187.807 49.0625 193.721 49 201.531 49V47ZM184.699 47.8713C184.667 47.7767 184.648 47.7029 184.637 47.6476C184.626 47.5914 184.625 47.5649 184.625 47.5625H182.625C182.625 47.8804 182.701 48.2038 182.801 48.5037L184.699 47.8713ZM184.625 47.5625C184.625 47.5652 184.626 47.5172 184.645 47.3887C184.663 47.2706 184.691 47.1139 184.731 46.9149L182.769 46.5226C182.689 46.9248 182.625 47.3019 182.625 47.5625H184.625ZM183.85 47.7138C184.476 47.6511 184.98 47.5986 185.36 47.5564L185.14 45.5686C184.77 45.6097 184.274 45.6614 183.65 45.7237L183.85 47.7138ZM185.36 47.5564C185.759 47.5121 186.288 47.4362 186.94 47.331L186.622 45.3565C185.983 45.4597 185.491 45.5296 185.14 45.5686L185.36 47.5564ZM186.936 47.3318C187.625 47.224 188.212 47.1001 188.676 46.9536L188.074 45.0464C187.746 45.1499 187.27 45.2552 186.627 45.3557L186.936 47.3318ZM188.705 46.9439C189.159 46.7851 189.619 46.5939 190.086 46.3716L189.226 44.5659C188.818 44.7603 188.424 44.9233 188.045 45.0561L188.705 46.9439ZM190.086 46.3716C190.625 46.115 191.103 45.7698 191.439 45.3L189.811 44.1375C189.73 44.2511 189.562 44.4059 189.226 44.5659L190.086 46.3716ZM191.411 45.3366C191.781 44.8666 191.969 44.3151 191.969 43.7188H189.969C189.969 43.8724 189.928 43.9875 189.839 44.1009L191.411 45.3366ZM191.968 43.7571C192.219 37.2233 192.344 30.6376 192.344 24H190.344C190.344 30.6124 190.219 37.1726 189.969 43.6804L191.968 43.7571ZM192.344 24C192.344 17.2407 192.239 11.4029 192.03 6.48874L190.032 6.57376C190.24 11.4513 190.344 17.2593 190.344 24H192.344ZM192.031 6.49282C191.998 5.63641 191.603 4.91987 190.946 4.38229L189.679 5.93021C189.939 6.14263 190.023 6.34275 190.032 6.56968L192.031 6.49282ZM190.966 4.39943C190.342 3.8603 189.505 3.50606 188.544 3.27719L188.081 5.22281C188.87 5.41061 189.366 5.66054 189.659 5.91307L190.966 4.39943ZM188.549 3.27848C187.675 3.06526 186.911 2.9114 186.262 2.82188L185.988 4.80312C186.548 4.88027 187.241 5.01807 188.076 5.22152L188.549 3.27848ZM186.301 2.82807C185.676 2.71642 184.871 2.61956 183.899 2.53501L183.726 4.52749C184.67 4.60961 185.408 4.70025 185.949 4.79693L186.301 2.82807ZM184.789 3.31432C184.75 3.13841 184.723 3.00049 184.706 2.8967C184.688 2.78417 184.688 2.74381 184.688 2.75H182.688C182.688 3.02007 182.755 3.38102 182.836 3.74818L184.789 3.31432ZM184.688 2.75C184.688 2.77839 184.685 2.76001 184.703 2.66326C184.718 2.57746 184.744 2.45951 184.783 2.30504L182.842 1.81996C182.762 2.14048 182.688 2.48417 182.688 2.75H184.688ZM197.344 6.49304C197.073 13.5871 196.938 20.1938 196.938 26.3125H198.938C198.938 20.2229 199.073 13.642 199.343 6.56946L197.344 6.49304ZM196.938 26.3125C196.938 29.7013 197.052 36.1713 197.282 45.7115L199.281 45.6635C199.052 36.1204 198.938 29.6737 198.938 26.3125H196.938ZM198.235 46.6864C199.154 46.7292 200.454 46.75 202.125 46.75V44.75C200.463 44.75 199.2 44.7292 198.328 44.6886L198.235 46.6864ZM202.125 46.75C205.6 46.75 208.726 46.2245 211.487 45.1508L210.763 43.2867C208.274 44.2547 205.4 44.75 202.125 44.75V46.75ZM211.494 45.1482C214.242 44.0576 216.531 42.5283 218.333 40.5481L216.854 39.2019C215.281 40.93 213.258 42.2966 210.756 43.2893L211.494 45.1482ZM218.333 40.5481C220.119 38.5859 221.458 36.2765 222.353 33.6334L220.459 32.9916C219.646 35.3902 218.443 37.4558 216.854 39.2019L218.333 40.5481ZM222.352 33.638C223.267 30.9781 223.719 28.0643 223.719 24.9062H221.719C221.719 27.8732 221.295 30.5635 220.461 32.987L222.352 33.638ZM223.719 24.9062C223.719 23.2701 223.59 21.6637 223.331 20.0878L221.357 20.4122C221.598 21.878 221.719 23.3758 221.719 24.9062H223.719ZM223.331 20.0878C223.071 18.5077 222.661 16.9016 222.102 15.2701L220.21 15.9174C220.735 17.4526 221.117 18.9507 221.357 20.4122L223.331 20.0878ZM222.102 15.2701C221.53 13.5958 220.735 12.0496 219.718 10.6351L218.094 11.8024C218.994 13.0546 219.7 14.4251 220.21 15.9174L222.102 15.2701ZM219.718 10.6351C218.703 9.22234 217.49 7.96656 216.084 6.86823L214.853 8.44427C216.114 9.42927 217.193 10.5485 218.094 11.8024L219.718 10.6351ZM216.098 6.87901C214.667 5.72039 212.92 4.84345 210.882 4.22996L210.305 6.14504C212.143 6.69822 213.646 7.46711 214.84 8.43349L216.098 6.87901ZM210.894 4.23376C208.866 3.59446 206.638 3.28125 204.219 3.28125V5.28125C206.466 5.28125 208.488 5.57221 210.293 6.14124L210.894 4.23376ZM204.219 3.28125C202.032 3.28125 200.022 3.41919 198.193 3.69899L198.495 5.67601C200.207 5.41415 202.114 5.28125 204.219 5.28125V3.28125ZM197.344 4.6875V6.53125H199.344V4.6875H197.344ZM237.5 22.2812L237.397 21.2865L236.7 21.3584L236.53 22.0387L237.5 22.2812ZM248.062 19.7188L248.434 18.7903L248.048 18.6361L247.667 18.8003L248.062 19.7188ZM249.156 20.5312H250.156V20.2445L250.004 20.0013L249.156 20.5312ZM249.156 25.9062H248.156L250.04 26.3736L249.156 25.9062ZM252.594 21.6562L251.928 20.9099L251.923 20.9145L252.594 21.6562ZM260.438 20.7188L259.74 21.4355L259.75 21.445L259.76 21.4543L260.438 20.7188ZM255.25 26.6875L254.532 27.3833L254.543 27.3947L254.554 27.4057L255.25 26.6875ZM254.188 24.0625L255.186 24.0049L255.104 22.5819L253.794 23.1434L254.188 24.0625ZM251.188 26.5625L250.433 25.9057L250.427 25.9127L251.188 26.5625ZM249.156 30.4062L248.175 30.2132L248.156 30.3088V30.4062H249.156ZM249.406 43.7188L250.406 43.6803L250.405 43.6794L249.406 43.7188ZM250 45.125L249.274 45.8127L249.283 45.8226L249.293 45.8321L250 45.125ZM251.656 46L251.382 46.9615L251.656 46ZM253.469 46.4688L253.256 47.4459L253.277 47.4504L253.297 47.454L253.469 46.4688ZM255.344 46.7188L256.238 46.2715L255.994 45.7832L255.451 45.7245L255.344 46.7188ZM255.344 48.1875L255.304 49.1867L255.949 49.2125L256.238 48.6347L255.344 48.1875ZM238.125 48.1875L237.155 48.43L237.353 49.2236L238.17 49.1865L238.125 48.1875ZM238.125 46.7188L238.005 45.726L237.286 45.8131L237.144 46.5226L238.125 46.7188ZM239.812 46.4688L240 47.4511L240.022 47.4468L240.044 47.4416L239.812 46.4688ZM242.906 45.125L243.654 45.7894L243.663 45.7794L243.671 45.7691L242.906 45.125ZM243.438 43.7188L242.438 43.6784L242.438 43.6803L243.438 43.7188ZM243.5 25.0312H244.5V24.4718L244.023 24.1791L243.5 25.0312ZM237.5 23.75L236.53 23.9925L236.711 24.7159L237.456 24.749L237.5 23.75ZM237.603 23.276C241.722 22.8513 245.345 21.9774 248.458 20.6372L247.667 18.8003C244.78 20.0434 241.362 20.8778 237.397 21.2865L237.603 23.276ZM247.691 20.6472C248.096 20.8092 248.251 20.9703 248.308 21.0612L250.004 20.0013C249.644 19.4256 249.071 19.0449 248.434 18.7903L247.691 20.6472ZM248.156 20.5312V25.9062H250.156V20.5312H248.156ZM250.04 26.3736C250.745 25.0401 251.81 23.713 253.264 22.398L251.923 20.9145C250.336 22.3495 249.109 23.8557 248.272 25.4389L250.04 26.3736ZM253.259 22.4025C254.664 21.1502 256.04 20.5938 257.406 20.5938V18.5938C255.439 18.5938 253.607 19.4123 251.928 20.91L253.259 22.4025ZM257.406 20.5938C258.441 20.5938 259.186 20.8965 259.74 21.4355L261.135 20.002C260.147 19.041 258.871 18.5938 257.406 18.5938V20.5938ZM259.76 21.4543C260.305 21.9566 260.625 22.6772 260.625 23.75H262.625C262.625 22.2395 262.153 20.9392 261.115 19.9832L259.76 21.4543ZM260.625 23.75C260.625 24.7707 260.33 25.4403 259.845 25.8974L261.217 27.3526C262.191 26.4347 262.625 25.1877 262.625 23.75H260.625ZM259.845 25.8974C259.321 26.3915 258.659 26.6562 257.781 26.6562V28.6562C259.112 28.6562 260.283 28.2335 261.217 27.3526L259.845 25.8974ZM257.781 26.6562C256.992 26.6562 256.407 26.4156 255.946 25.9693L254.554 27.4057C255.427 28.2511 256.529 28.6562 257.781 28.6562V26.6562ZM255.968 25.9917C255.517 25.5257 255.237 24.8915 255.186 24.0049L253.189 24.1201C253.263 25.4001 253.691 26.5159 254.532 27.3833L255.968 25.9917ZM253.794 23.1434C252.71 23.6077 251.59 24.5774 250.433 25.9057L251.942 27.2193C253.035 25.9643 253.915 25.2673 254.581 24.9816L253.794 23.1434ZM250.427 25.9127C249.245 27.2955 248.467 28.729 248.175 30.2132L250.137 30.5993C250.345 29.5418 250.921 28.4128 251.948 27.2123L250.427 25.9127ZM248.156 30.4062C248.156 35.064 248.24 39.5146 248.407 43.7581L250.405 43.6794C250.239 39.4645 250.156 35.0402 250.156 30.4062H248.156ZM248.407 43.7572C248.437 44.5428 248.733 45.2419 249.274 45.8127L250.726 44.4373C250.517 44.2164 250.417 43.978 250.406 43.6803L248.407 43.7572ZM249.293 45.8321C249.829 46.3679 250.555 46.7254 251.382 46.9615L251.931 45.0385C251.299 44.858 250.921 44.6321 250.707 44.4179L249.293 45.8321ZM251.382 46.9615C252.121 47.1729 252.748 47.3355 253.256 47.4459L253.681 45.4916C253.231 45.3937 252.649 45.2437 251.931 45.0385L251.382 46.9615ZM253.297 47.454C253.806 47.5425 254.455 47.6285 255.236 47.713L255.451 45.7245C254.691 45.6423 254.089 45.5617 253.64 45.4835L253.297 47.454ZM254.449 47.166C254.507 47.2817 254.531 47.3895 254.531 47.5H256.531C256.531 47.0689 256.43 46.6558 256.238 46.2715L254.449 47.166ZM254.531 47.5C254.531 47.5094 254.528 47.5839 254.449 47.7403L256.238 48.6347C256.41 48.2911 256.531 47.9073 256.531 47.5H254.531ZM255.384 47.1883C252.246 47.0628 249.139 47 246.062 47V49C249.111 49 252.192 49.0622 255.304 49.1867L255.384 47.1883ZM246.062 47C243.505 47 240.843 47.0629 238.08 47.1885L238.17 49.1865C240.907 49.0621 243.537 49 246.062 49V47ZM239.095 47.945C239.057 47.7905 239.031 47.6725 239.015 47.5867C238.998 47.49 239 47.4716 239 47.5H237C237 47.7658 237.075 48.1095 237.155 48.43L239.095 47.945ZM239 47.5C239 47.53 238.998 47.5377 239.001 47.5061C239.004 47.4803 239.01 47.4407 239.019 47.3846C239.037 47.2724 239.065 47.1172 239.106 46.9149L237.144 46.5226C237.102 46.737 237.068 46.9203 237.044 47.0686C237.023 47.1957 237 47.3589 237 47.5H239ZM238.245 47.7115C238.944 47.6267 239.531 47.5403 240 47.4511L239.625 45.4864C239.219 45.5639 238.681 45.6441 238.005 45.726L238.245 47.7115ZM240.044 47.4416C240.516 47.3291 241.085 47.1645 241.745 46.9517L241.13 45.0483C240.498 45.2522 239.984 45.4 239.581 45.4959L240.044 47.4416ZM241.745 46.9517C242.502 46.7072 243.167 46.3367 243.654 45.7894L242.159 44.4606C241.979 44.6633 241.664 44.8761 241.13 45.0483L241.745 46.9517ZM243.671 45.7691C244.155 45.1946 244.408 44.5099 244.437 43.7572L242.438 43.6803C242.426 44.011 242.324 44.2637 242.141 44.4809L243.671 45.7691ZM244.437 43.7591C244.521 41.6789 244.562 39.1646 244.562 36.2188H242.562C242.562 39.1479 242.521 41.6336 242.438 43.6784L244.437 43.7591ZM244.562 36.2188C244.562 35.2347 244.552 33.5641 244.531 31.2099L242.531 31.2276C242.552 33.5818 242.562 35.2445 242.562 36.2188H244.562ZM244.531 31.2099C244.51 28.8578 244.5 26.7984 244.5 25.0312H242.5C242.5 26.8058 242.51 28.8714 242.531 31.2276L244.531 31.2099ZM244.023 24.1791C242.606 23.309 240.386 22.8773 237.544 22.751L237.456 24.749C240.239 24.8727 242.019 25.2952 242.977 25.8834L244.023 24.1791ZM238.47 23.5075C238.393 23.1994 238.375 23.033 238.375 22.9688H236.375C236.375 23.2795 236.44 23.6339 236.53 23.9925L238.47 23.5075ZM238.375 22.9688C238.375 22.9971 238.373 22.9788 238.39 22.882C238.406 22.7962 238.432 22.6783 238.47 22.5238L236.53 22.0387C236.45 22.3592 236.375 22.7029 236.375 22.9688H238.375ZM265.625 22.2812L265.522 21.2865L264.825 21.3584L264.655 22.0387L265.625 22.2812ZM276.188 19.7188L276.559 18.7903L276.173 18.6361L275.792 18.8003L276.188 19.7188ZM277.281 20.5312H278.281V20.2445L278.129 20.0013L277.281 20.5312ZM277.531 43.7188L276.532 43.7546L276.532 43.7572L277.531 43.7188ZM278 45.125L277.195 45.7182L277.213 45.7422L277.232 45.7652L278 45.125ZM279.312 46L278.965 46.9377L279.312 46ZM280.719 46.4688L280.451 47.4323L280.476 47.4393L280.502 47.4449L280.719 46.4688ZM282.188 46.7188L283.082 46.2715L282.846 45.8001L282.324 45.7281L282.188 46.7188ZM282.188 48.1875L282.142 49.1865L282.706 49.2121L283.02 48.7422L282.188 48.1875ZM266.25 48.1875L265.28 48.43L265.478 49.2236L266.295 49.1865L266.25 48.1875ZM266.25 46.7188L266.13 45.726L265.411 45.8131L265.269 46.5226L266.25 46.7188ZM267.938 46.4688L268.125 47.4511L268.147 47.4468L268.169 47.4416L267.938 46.4688ZM271.031 45.125L271.779 45.7894L271.788 45.7794L271.796 45.7691L271.031 45.125ZM271.562 43.7188L270.563 43.6784L270.563 43.6803L271.562 43.7188ZM271.625 25.0312H272.625V24.4718L272.148 24.1791L271.625 25.0312ZM265.625 23.75L264.655 23.9925L264.836 24.7159L265.581 24.749L265.625 23.75ZM271.656 6.5L270.959 5.78321L270.949 5.79289L271.656 6.5ZM277.094 11.9375L277.801 12.6447L277.81 12.6349L277.094 11.9375ZM271.656 11.9375L270.94 12.6349L270.949 12.6447L270.959 12.6542L271.656 11.9375ZM265.728 23.276C269.847 22.8513 273.47 21.9774 276.583 20.6372L275.792 18.8003C272.905 20.0434 269.487 20.8778 265.522 21.2865L265.728 23.276ZM275.816 20.6472C276.221 20.8092 276.376 20.9703 276.433 21.0612L278.129 20.0013C277.769 19.4256 277.196 19.0449 276.559 18.7903L275.816 20.6472ZM276.281 20.5312C276.281 31.3443 276.365 39.0892 276.532 43.7546L278.531 43.6829C278.365 39.0566 278.281 31.3432 278.281 20.5312H276.281ZM276.532 43.7572C276.56 44.4777 276.772 45.1447 277.195 45.7182L278.805 44.5318C278.644 44.3137 278.544 44.0432 278.531 43.6803L276.532 43.7572ZM277.232 45.7652C277.679 46.302 278.276 46.6825 278.965 46.9377L279.66 45.0623C279.224 44.9008 278.946 44.698 278.768 44.4848L277.232 45.7652ZM278.965 46.9377C279.542 47.1512 280.039 47.3178 280.451 47.4323L280.986 45.5052C280.649 45.4114 280.208 45.2655 279.66 45.0623L278.965 46.9377ZM280.502 47.4449C280.914 47.5366 281.433 47.6242 282.051 47.7094L282.324 45.7281C281.733 45.6466 281.273 45.5676 280.936 45.4926L280.502 47.4449ZM281.293 47.166C281.351 47.2817 281.375 47.3895 281.375 47.5H283.375C283.375 47.0689 283.274 46.6558 283.082 46.2715L281.293 47.166ZM281.375 47.5C281.375 47.5587 281.368 47.5941 281.363 47.6119C281.361 47.6208 281.359 47.6261 281.358 47.6287C281.356 47.6312 281.356 47.6324 281.355 47.6328L283.02 48.7422C283.275 48.3597 283.375 47.9278 283.375 47.5H281.375ZM282.233 47.1885C279.469 47.0629 276.787 47 274.188 47V49C276.755 49 279.406 49.0621 282.142 49.1865L282.233 47.1885ZM274.188 47C271.63 47 268.968 47.0629 266.205 47.1885L266.295 49.1865C269.032 49.0621 271.662 49 274.188 49V47ZM267.22 47.945C267.182 47.7905 267.156 47.6725 267.14 47.5867C267.123 47.49 267.125 47.4716 267.125 47.5H265.125C265.125 47.7658 265.2 48.1095 265.28 48.43L267.22 47.945ZM267.125 47.5C267.125 47.53 267.123 47.5377 267.126 47.5061C267.129 47.4803 267.135 47.4407 267.144 47.3846C267.162 47.2724 267.19 47.1172 267.231 46.9149L265.269 46.5226C265.227 46.737 265.193 46.9203 265.169 47.0686C265.148 47.1957 265.125 47.3589 265.125 47.5H267.125ZM266.37 47.7115C267.069 47.6267 267.656 47.5403 268.125 47.4511L267.75 45.4864C267.344 45.5639 266.806 45.6441 266.13 45.726L266.37 47.7115ZM268.169 47.4416C268.641 47.3291 269.21 47.1645 269.87 46.9517L269.255 45.0483C268.623 45.2522 268.109 45.4 267.706 45.4959L268.169 47.4416ZM269.87 46.9517C270.627 46.7072 271.292 46.3367 271.779 45.7894L270.284 44.4606C270.104 44.6633 269.789 44.8761 269.255 45.0483L269.87 46.9517ZM271.796 45.7691C272.28 45.1946 272.533 44.5099 272.562 43.7572L270.563 43.6803C270.551 44.011 270.449 44.2637 270.266 44.4809L271.796 45.7691ZM272.562 43.7591C272.646 41.6789 272.688 39.1646 272.688 36.2188H270.688C270.688 39.1479 270.646 41.6336 270.563 43.6784L272.562 43.7591ZM272.688 36.2188C272.688 35.2347 272.677 33.5641 272.656 31.2099L270.656 31.2276C270.677 33.5818 270.688 35.2445 270.688 36.2188H272.688ZM272.656 31.2099C272.635 28.8578 272.625 26.7984 272.625 25.0312H270.625C270.625 26.8058 270.635 28.8714 270.656 31.2276L272.656 31.2099ZM272.148 24.1791C270.731 23.309 268.511 22.8773 265.669 22.751L265.581 24.749C268.364 24.8727 270.144 25.2952 271.102 25.8834L272.148 24.1791ZM266.595 23.5075C266.518 23.1994 266.5 23.033 266.5 22.9688H264.5C264.5 23.2795 264.565 23.6339 264.655 23.9925L266.595 23.5075ZM266.5 22.9688C266.5 22.9971 266.498 22.9788 266.515 22.882C266.531 22.7962 266.557 22.6783 266.595 22.5238L264.655 22.0387C264.575 22.3592 264.5 22.7029 264.5 22.9688H266.5ZM271.531 9.21875C271.531 8.42095 271.801 7.7692 272.363 7.20711L270.949 5.79289C270.011 6.7308 269.531 7.89155 269.531 9.21875H271.531ZM272.354 7.21673C272.944 6.6418 273.603 6.375 274.375 6.375V4.375C273.064 4.375 271.91 4.8582 270.959 5.78327L272.354 7.21673ZM274.375 6.375C275.173 6.375 275.825 6.64501 276.387 7.20711L277.801 5.79289C276.863 4.85499 275.702 4.375 274.375 4.375V6.375ZM276.387 7.20711C276.949 7.7692 277.219 8.42095 277.219 9.21875H279.219C279.219 7.89155 278.739 6.7308 277.801 5.79289L276.387 7.20711ZM277.219 9.21875C277.219 9.99068 276.952 10.6493 276.377 11.2401L277.81 12.6349C278.736 11.6841 279.219 10.5302 279.219 9.21875H277.219ZM276.387 11.2304C275.825 11.7925 275.173 12.0625 274.375 12.0625V14.0625C275.702 14.0625 276.863 13.5825 277.801 12.6446L276.387 11.2304ZM274.375 12.0625C273.603 12.0625 272.944 11.7957 272.354 11.2208L270.959 12.6542C271.91 13.5793 273.064 14.0625 274.375 14.0625V12.0625ZM272.373 11.2401C271.798 10.6493 271.531 9.99068 271.531 9.21875H269.531C269.531 10.5302 270.014 11.6841 270.94 12.6349L272.373 11.2401ZM283.156 20.2812L283.202 19.2823L282.492 19.25L282.228 19.9099L283.156 20.2812ZM299.031 20.2812L300.001 20.0387L299.803 19.2443L298.985 19.2823L299.031 20.2812ZM299.031 21.75L299.102 22.7475L299.826 22.6958L300.001 21.9925L299.031 21.75ZM297.594 21.9062L297.711 22.8994L297.734 22.8966L297.758 22.8926L297.594 21.9062ZM294.875 24.7812L293.913 25.056L293.923 25.0885L293.934 25.1203L294.875 24.7812ZM300.562 40.5625L299.622 40.9015L299.86 41.5625H300.562V40.5625ZM300.75 40.5625V41.5625H301.414L301.671 40.9511L300.75 40.5625ZM307.406 24.7812L308.328 25.1699L308.332 25.1585L307.406 24.7812ZM304.156 21.75L303.186 21.9925L303.362 22.6972L304.087 22.7476L304.156 21.75ZM304.156 20.2812L304.207 19.2826L303.386 19.2404L303.186 20.0387L304.156 20.2812ZM315.344 20.2812L316.292 19.965L316.053 19.2472L315.297 19.2823L315.344 20.2812ZM315.344 21.75L315.386 22.7491L316.17 22.7162L316.324 21.9461L315.344 21.75ZM310.281 24.7812L309.375 24.3578L309.371 24.367L309.367 24.3762L310.281 24.7812ZM299.594 48.9062V49.9062H300.244L300.508 49.3113L299.594 48.9062ZM298.062 48.9062L297.132 49.2716L297.381 49.9062H298.062V48.9062ZM288.594 24.7812L287.66 25.1402L287.663 25.1466L288.594 24.7812ZM287.656 23.4062L286.949 24.1134L286.968 24.132L286.987 24.1495L287.656 23.4062ZM286.094 22.5L285.749 23.4389L285.768 23.4457L285.787 23.4517L286.094 22.5ZM284.625 22.0312L284.382 23.0015L284.396 23.0047L284.625 22.0312ZM283.156 21.75L282.262 22.1972L282.491 22.6556L282.997 22.7372L283.156 21.75ZM283.111 21.2802C285.876 21.4059 288.662 21.4688 291.469 21.4688V19.4688C288.692 19.4688 285.936 19.4066 283.202 19.2823L283.111 21.2802ZM291.469 21.4688C293.84 21.4688 296.377 21.4058 299.078 21.2802L298.985 19.2823C296.311 19.4067 293.805 19.4688 291.469 19.4688V21.4688ZM298.061 20.5238C298.138 20.8318 298.156 20.9982 298.156 21.0625H300.156C300.156 20.7518 300.091 20.3973 300.001 20.0387L298.061 20.5238ZM298.156 21.0625C298.156 21.0341 298.159 21.0525 298.141 21.1492C298.126 21.235 298.1 21.353 298.061 21.5075L300.001 21.9925C300.082 21.672 300.156 21.3283 300.156 21.0625H298.156ZM298.96 20.7525C298.36 20.7954 297.847 20.8503 297.429 20.9199L297.758 22.8926C298.091 22.8372 298.536 22.7879 299.102 22.7475L298.96 20.7525ZM297.477 20.9131C297.072 20.9607 296.585 21.0526 296.025 21.1819L296.475 23.1306C296.998 23.0099 297.407 22.9351 297.711 22.8994L297.477 20.9131ZM296.025 21.1819C295.394 21.3276 294.8 21.5709 294.353 21.9839L295.71 23.4536C295.804 23.3666 296.023 23.2349 296.475 23.1306L296.025 21.1819ZM294.353 21.9839C293.886 22.4145 293.625 22.9792 293.625 23.625H295.625C295.625 23.5625 295.634 23.523 295.71 23.4536L294.353 21.9839ZM293.625 23.625C293.625 23.8317 293.666 24.0625 293.71 24.266C293.758 24.4881 293.827 24.7532 293.913 25.056L295.837 24.5065C295.756 24.226 295.7 24.0067 295.665 23.8434C295.626 23.6615 295.625 23.6058 295.625 23.625H293.625ZM293.934 25.1203L299.622 40.9015L301.503 40.2235L295.816 24.4422L293.934 25.1203ZM300.562 41.5625H300.75V39.5625H300.562V41.5625ZM301.671 40.9511L308.328 25.1699L306.485 24.3926L299.829 40.1739L301.671 40.9511ZM308.332 25.1585C308.577 24.5584 308.75 23.9663 308.75 23.4375H306.75C306.75 23.5753 306.694 23.8791 306.48 24.404L308.332 25.1585ZM308.75 23.4375C308.75 22.4237 308.07 21.7644 307.277 21.3917C306.509 21.0313 305.463 20.8385 304.226 20.7524L304.087 22.7476C305.245 22.8282 305.996 22.9999 306.427 23.2021C306.634 23.2996 306.715 23.3803 306.74 23.4117C306.752 23.4274 306.75 23.4248 306.75 23.4375H308.75ZM305.126 21.5075C305.088 21.353 305.062 21.235 305.046 21.1492C305.029 21.0525 305.031 21.0341 305.031 21.0625H303.031C303.031 21.3283 303.106 21.672 303.186 21.9925L305.126 21.5075ZM305.031 21.0625C305.031 20.9982 305.049 20.8318 305.126 20.5238L303.186 20.0387C303.096 20.3973 303.031 20.7518 303.031 21.0625H305.031ZM304.105 21.2799C306.532 21.4044 308.073 21.4688 308.688 21.4688V19.4688C308.136 19.4688 306.655 19.4081 304.207 19.2826L304.105 21.2799ZM308.688 21.4688C310.459 21.4688 312.694 21.4056 315.39 21.2802L315.297 19.2823C312.618 19.4069 310.416 19.4688 308.688 19.4688V21.4688ZM314.395 20.5975C314.457 20.7835 314.469 20.8913 314.469 20.9375H316.469C316.469 20.6087 316.397 20.279 316.292 19.965L314.395 20.5975ZM314.469 20.9375C314.469 20.918 314.469 20.9524 314.449 21.0823C314.431 21.1973 314.403 21.3532 314.363 21.5539L316.324 21.9461C316.403 21.555 316.469 21.1809 316.469 20.9375H314.469ZM315.302 20.7509C313.938 20.8082 312.724 21.1176 311.705 21.728C310.677 22.3435 309.901 23.2331 309.375 24.3578L311.187 25.2047C311.557 24.4127 312.073 23.8388 312.732 23.4439C313.401 23.0439 314.27 22.796 315.386 22.7491L315.302 20.7509ZM309.367 24.3762L298.679 48.5012L300.508 49.3113L311.196 25.1863L309.367 24.3762ZM299.594 47.9062H298.062V49.9062H299.594V47.9062ZM298.993 48.5409L289.525 24.4159L287.663 25.1466L297.132 49.2716L298.993 48.5409ZM289.527 24.4223C289.264 23.7388 288.863 23.1472 288.325 22.663L286.987 24.1495C287.283 24.4153 287.507 24.7403 287.66 25.1402L289.527 24.4223ZM288.363 22.6991C287.834 22.1699 287.166 21.7951 286.401 21.5483L285.787 23.4517C286.313 23.6216 286.687 23.851 286.949 24.1134L288.363 22.6991ZM286.438 21.5611C285.801 21.3275 285.267 21.155 284.854 21.0578L284.396 23.0047C284.691 23.0742 285.137 23.2142 285.749 23.4389L286.438 21.5611ZM284.868 21.0611C284.492 20.9673 283.969 20.8682 283.315 20.7628L282.997 22.7372C283.635 22.8401 284.091 22.9286 284.382 23.0014L284.868 21.0611ZM284.051 21.3028C284.06 21.3223 284.054 21.3178 284.046 21.2742C284.039 21.2312 284.031 21.1626 284.031 21.0625H282.031C282.031 21.4304 282.081 21.835 282.262 22.1972L284.051 21.3028ZM284.031 21.0625C284.031 20.8308 284.063 20.7063 284.085 20.6526L282.228 19.9099C282.083 20.2729 282.031 20.6692 282.031 21.0625H284.031ZM341.75 31.4375V32.4375H342.479L342.702 31.7429L341.75 31.4375ZM324.719 31.4375V30.4375H323.783L323.721 31.371L324.719 31.4375ZM324.594 34.75H323.594V34.7601L323.594 34.7701L324.594 34.75ZM327.312 42.2188L326.581 42.9011L326.585 42.9051L327.312 42.2188ZM336.562 44.75L336.798 45.7219L336.812 45.7185L336.826 45.7148L336.562 44.75ZM338.25 44.125L337.803 43.2306L337.794 43.2348L337.786 43.2392L338.25 44.125ZM340.688 42.0938L339.924 41.4478L339.919 41.4536L340.688 42.0938ZM341.594 40.9062L342.405 41.4906L342.411 41.4831L342.416 41.4755L341.594 40.9062ZM342.344 39.875L342.548 38.896L341.969 38.7755L341.584 39.2242L342.344 39.875ZM343.562 40.5625L344.499 40.9121L344.709 40.3504L344.312 39.9009L343.562 40.5625ZM338.719 46.8438L339.251 47.6904L339.257 47.6867L338.719 46.8438ZM327.875 48.4062L328.141 47.4422L328.129 47.4392L327.875 48.4062ZM321.469 44.1562L320.676 44.766L320.682 44.7734L321.469 44.1562ZM319.469 40.125L318.513 40.4191L318.514 40.4226L319.469 40.125ZM337.156 20.3438L336.79 21.2743L336.799 21.2779L336.808 21.2813L337.156 20.3438ZM340.156 22.3125L339.394 22.9601L339.399 22.9656L339.404 22.971L340.156 22.3125ZM341.75 25.0625L340.801 25.3787L340.805 25.3907L340.81 25.4026L341.75 25.0625ZM327.812 23.5312L327.111 22.8184L327.105 22.8241L327.812 23.5312ZM325.062 29.3125L324.085 29.0997L323.821 30.3125H325.062V29.3125ZM336.312 29.3125V30.3125H337.083L337.28 29.567L336.312 29.3125ZM341.75 30.4375H324.719V32.4375H341.75V30.4375ZM323.721 31.371C323.637 32.6368 323.594 33.764 323.594 34.75H325.594C325.594 33.8194 325.634 32.7382 325.717 31.504L323.721 31.371ZM323.594 34.7701C323.66 38.0661 324.63 40.8098 326.581 42.9011L328.044 41.5364C326.495 39.8777 325.652 37.6422 325.594 34.7299L323.594 34.7701ZM326.585 42.9051C328.553 44.9905 331.177 46 334.344 46V44C331.636 44 329.572 43.1553 328.04 41.5324L326.585 42.9051ZM334.344 46C335.206 46 336.025 45.9093 336.798 45.7219L336.327 43.7781C335.725 43.9241 335.065 44 334.344 44V46ZM336.826 45.7148C337.555 45.5159 338.191 45.2846 338.714 45.0108L337.786 43.2392C337.434 43.4237 336.945 43.6091 336.299 43.7852L336.826 45.7148ZM338.697 45.0194C339.257 44.7397 339.8 44.3475 340.331 43.8635L338.982 42.3865C338.554 42.7775 338.16 43.0519 337.803 43.2306L338.697 45.0194ZM340.331 43.8635C340.817 43.4192 341.202 43.0382 341.456 42.7339L339.919 41.4536C339.756 41.6493 339.454 41.9558 338.982 42.3865L340.331 43.8635ZM341.451 42.7397C341.705 42.4391 342.025 42.0186 342.405 41.4906L340.782 40.3219C340.412 40.8356 340.128 41.2067 339.924 41.4478L341.451 42.7397ZM342.416 41.4755C342.799 40.9225 343.018 40.6247 343.103 40.5258L341.584 39.2242C341.419 39.4169 341.139 39.8067 340.772 40.337L342.416 41.4755ZM342.14 40.854C342.447 40.9179 342.655 41.0454 342.813 41.2241L344.312 39.9009C343.845 39.3713 343.241 39.0404 342.548 38.896L342.14 40.854ZM342.626 40.2129C341.648 42.8326 340.159 44.7386 338.181 46.0008L339.257 47.6867C341.654 46.1573 343.394 43.8757 344.499 40.9121L342.626 40.2129ZM338.187 45.9971C336.157 47.2728 333.966 47.9062 331.594 47.9062V49.9062C334.346 49.9062 336.905 49.1647 339.251 47.6904L338.187 45.9971ZM331.594 47.9062C330.412 47.9062 329.261 47.7514 328.141 47.4423L327.609 49.3702C328.905 49.7278 330.234 49.9062 331.594 49.9062V47.9062ZM328.129 47.4392C327.054 47.1561 325.994 46.6813 324.95 46.0046L323.862 47.6829C325.068 48.4645 326.321 49.0314 327.621 49.3733L328.129 47.4392ZM324.95 46.0046C323.919 45.3359 323.021 44.5153 322.256 43.5391L320.682 44.7734C321.583 45.9222 322.644 46.8932 323.862 47.6829L324.95 46.0046ZM322.261 43.5465C321.514 42.5756 320.896 41.3438 320.423 39.8274L318.514 40.4226C319.041 42.1146 319.756 43.5703 320.676 44.766L322.261 43.5465ZM320.425 39.8309C319.958 38.3144 319.719 36.6235 319.719 34.75H317.719C317.719 36.7932 317.98 38.6856 318.513 40.4191L320.425 39.8309ZM319.719 34.75C319.719 30.5755 320.987 27.2062 323.478 24.5605L322.022 23.1895C319.138 26.2522 317.719 30.1328 317.719 34.75H319.719ZM323.478 24.5605C325.977 21.9068 329.016 20.5938 332.656 20.5938V18.5938C328.464 18.5938 324.898 20.1348 322.022 23.1895L323.478 24.5605ZM332.656 20.5938C334.292 20.5938 335.662 20.8306 336.79 21.2743L337.522 19.4132C336.108 18.8569 334.479 18.5938 332.656 18.5938V20.5938ZM336.808 21.2813C337.981 21.7161 338.822 22.287 339.394 22.9601L340.918 21.6649C340.074 20.6713 338.915 19.9297 337.504 19.4062L336.808 21.2813ZM339.404 22.971C340.05 23.7095 340.512 24.511 340.801 25.3787L342.699 24.7463C342.321 23.614 341.721 22.5821 340.909 21.654L339.404 22.971ZM340.81 25.4026C341.121 26.2643 341.281 27.2004 341.281 28.2188H343.281C343.281 26.9871 343.087 25.8191 342.69 24.7224L340.81 25.4026ZM341.281 28.2188C341.281 29.1457 341.124 30.1156 340.798 31.1321L342.702 31.7429C343.084 30.5511 343.281 29.3751 343.281 28.2188H341.281ZM331.906 20.625C330.142 20.625 328.539 21.4139 327.111 22.8184L328.514 24.2441C329.67 23.1069 330.795 22.625 331.906 22.625V20.625ZM327.105 22.8241C325.649 24.2802 324.671 26.4122 324.085 29.0997L326.04 29.5253C326.579 27.0461 327.434 25.324 328.52 24.2384L327.105 22.8241ZM325.062 30.3125H336.312V28.3125H325.062V30.3125ZM337.28 29.567C337.502 28.7229 337.625 27.946 337.625 27.25H335.625C335.625 27.7207 335.54 28.3188 335.345 29.058L337.28 29.567ZM337.625 27.25C337.625 25.4704 337.213 23.9113 336.317 22.6421L334.683 23.7954C335.287 24.6512 335.625 25.7796 335.625 27.25H337.625ZM336.317 22.6421C335.33 21.2441 333.781 20.625 331.906 20.625V22.625C333.324 22.625 334.17 23.0684 334.683 23.7954L336.317 22.6421Z" fill="black"/>
</g>
<defs>
<filter id="filter0_d_7_83" x="0.15625" y="0.5" width="347.406" height="70.7188" filterUnits="userSpaceOnUse" color-interpolation-filters="sRGB">
<feFlood flood-opacity="0" result="BackgroundImageFix"/>
<feColorMatrix in="SourceAlpha" type="matrix" values="0 0 0 0 0 0 0 0 0 0 0 0 0 0 0 0 0 0 127 0" result="hardAlpha"/>
<feOffset dy="4"/>
<feGaussianBlur stdDeviation="2"/>
<feComposite in2="hardAlpha" operator="out"/>
<feColorMatrix type="matrix" values="0 0 0 0 0 0 0 0 0 0 0 0 0 0 0 0 0 0 0.25 0"/>
<feBlend mode="normal" in2="BackgroundImageFix" result="effect1_dropShadow_7_83"/>
<feBlend mode="normal" in="SourceGraphic" in2="effect1_dropShadow_7_83" result="shape"/>
</filter>
</defs>
</svg>
